<?xml version="1.0" standalone="no"?>
<!DOCTYPE svg PUBLIC "-//W3C//DTD SVG 20010904//EN"
 "http://www.w3.org/TR/2001/REC-SVG-20010904/DTD/svg10.dtd">
<svg version="1.0" xmlns="http://www.w3.org/2000/svg"
 width="512.000000pt" height="512.000000pt" viewBox="0 0 512.000000 512.000000"
 preserveAspectRatio="xMidYMid meet">
<metadata>
Created by potrace 1.16, written by Peter Selinger 2001-2019
</metadata>
<g transform="translate(0.000000,512.000000) scale(0.100000,-0.100000)"
fill="#000000" stroke="none">
<path d="M2348 4529 c-374 -36 -733 -193 -1036 -454 -110 -94 -228 -228 -298
-335 -72 -113 -180 -338 -230 -484 -37 -108 -28 -102 15 9 55 145 163 364 225
460 65 100 160 202 286 307 447 375 983 535 1550 464 43 -5 43 -5 -10 9 -119
31 -328 41 -502 24z"/>
<path d="M2265 4444 c-249 -44 -534 -160 -746 -303 -238 -160 -418 -352 -522
-556 -181 -354 -220 -439 -256 -550 -60 -188 -75 -296 -68 -510 6 -188 28
-318 76 -445 23 -58 22 -51 -9 75 -27 112 -50 299 -50 408 0 234 66 519 164
707 60 116 246 367 361 488 105 110 284 265 400 346 39 27 113 80 165 116 100
71 164 106 251 140 72 27 224 68 312 85 45 8 59 13 37 13 -19 0 -71 -6 -115
-14z"/>
<path d="M2147 4354 c-121 -29 -244 -111 -274 -181 -7 -18 -20 -33 -27 -33
-29 0 -198 -93 -301 -166 -199 -141 -434 -394 -515 -554 -27 -53 -110 -264
-110 -279 0 -3 33 59 72 139 75 150 97 173 125 134 7 -10 13 -30 13 -45 0 -22
-4 -26 -20 -22 -21 6 -28 -11 -9 -23 7 -4 9 -24 6 -53 l-6 -46 23 62 c43 116
139 253 276 397 166 174 333 295 528 382 64 29 81 41 77 53 -36 92 32 166 199
221 86 28 89 29 46 29 -25 0 -71 -7 -103 -15z m-647 -524 c0 -5 -4 -10 -10
-10 -5 0 -10 5 -10 10 0 6 5 10 10 10 6 0 10 -4 10 -10z"/>
<path d="M3455 4308 c207 -125 404 -285 549 -447 54 -61 101 -111 104 -111 2
0 0 6 -5 13 -167 221 -364 396 -591 525 -136 78 -175 91 -57 20z"/>
<path d="M2910 4316 c0 -9 7 -16 16 -16 9 0 14 5 12 12 -6 18 -28 21 -28 4z"/>
<path d="M2320 4260 c0 -23 35 -28 43 -6 7 18 -1 26 -25 26 -11 0 -18 -7 -18
-20z"/>
<path d="M2359 4190 c-208 -33 -454 -134 -641 -262 -83 -57 -250 -199 -243
-206 2 -2 36 24 74 59 261 233 561 368 886 399 126 12 214 8 354 -16 47 -7 86
-12 89 -10 2 2 -30 12 -70 21 -84 20 -359 29 -449 15z"/>
<path d="M3230 4160 c11 -20 30 -28 30 -12 0 11 -22 32 -32 32 -5 0 -4 -9 2
-20z"/>
<path d="M2898 4143 c7 -3 16 -2 19 1 4 3 -2 6 -13 5 -11 0 -14 -3 -6 -6z"/>
<path d="M2335 4095 c-479 -74 -876 -412 -1044 -888 -92 -260 -99 -588 -17
-822 81 -235 224 -437 396 -559 8 -6 -14 22 -50 62 -95 106 -173 214 -219 301
-41 79 -91 216 -91 248 0 10 14 -22 31 -72 68 -200 200 -399 351 -526 35 -30
52 -38 70 -34 21 5 15 14 -73 103 -238 240 -369 553 -369 879 0 203 33 348
120 530 62 132 134 235 239 345 151 159 329 272 532 336 146 47 217 57 404 57
234 0 378 -33 580 -132 50 -24 81 -36 70 -27 -63 52 -333 159 -480 189 -108
23 -335 28 -450 10z m-1028 -1627 c-3 -7 -5 -2 -5 12 0 14 2 19 5 13 2 -7 2
-19 0 -25z"/>
<path d="M3062 4098 c7 -19 38 -22 38 -4 0 10 -9 16 -21 16 -12 0 -19 -5 -17
-12z"/>
<path d="M3640 4056 c0 -9 7 -16 16 -16 9 0 14 5 12 12 -6 18 -28 21 -28 4z"/>
<path d="M3220 4030 c0 -5 5 -10 10 -10 6 0 10 5 10 10 0 6 -4 10 -10 10 -5 0
-10 -4 -10 -10z"/>
<path d="M2531 4015 c-49 -15 -91 -50 -91 -75 0 -9 17 -28 37 -41 54 -36 78
-73 78 -124 0 -24 -3 -46 -7 -50 -4 -4 -38 -13 -75 -20 -38 -7 -97 -25 -131
-39 -66 -26 -190 -104 -213 -133 -10 -13 -5 -11 21 5 68 44 187 101 260 124
64 19 96 23 215 23 121 0 149 -3 210 -24 156 -53 266 -123 375 -237 369 -386
371 -972 5 -1340 -158 -159 -341 -244 -562 -259 -83 -6 -87 -5 -68 10 11 10
35 23 53 31 17 8 32 15 32 17 0 1 -28 0 -62 -3 -46 -4 -82 -15 -133 -41 -88
-46 -135 -61 -208 -68 l-58 -6 58 -42 c62 -45 140 -120 132 -127 -2 -3 -29 5
-59 16 -221 81 -221 82 -320 81 -72 0 -108 -5 -150 -21 -40 -15 -60 -18 -75
-11 -12 6 -9 0 9 -15 59 -50 175 -69 326 -53 84 8 80 1 -20 -33 -124 -42 -246
-29 -354 38 -26 16 -55 24 -90 25 -62 2 -167 50 -211 98 l-30 31 35 -21 c25
-15 52 -21 92 -21 53 0 59 2 94 40 21 22 47 40 59 40 16 0 17 2 5 10 -25 16
-40 12 -68 -18 -40 -43 -69 -55 -114 -48 -53 9 -90 29 -133 72 -19 19 -35 30
-35 25 0 -26 38 -103 87 -177 41 -62 55 -92 60 -132 3 -30 2 -52 -3 -52 -6 0
-46 29 -89 64 -79 63 -182 172 -278 294 -45 57 -69 80 -51 50 49 -84 147 -211
224 -289 114 -115 167 -156 325 -246 66 -39 152 -90 190 -115 39 -25 114 -65
169 -89 54 -24 93 -45 87 -47 -17 -6 -118 14 -220 44 -97 27 -118 25 -38 -4
139 -52 389 -68 577 -36 233 40 455 166 579 328 72 94 122 147 171 179 l45 29
-38 -5 c-90 -14 -167 -72 -248 -189 -81 -114 -244 -231 -401 -285 -89 -31
-255 -42 -351 -23 -98 19 -432 168 -557 249 -79 50 -44 47 63 -6 164 -82 348
-121 513 -109 203 14 320 68 491 227 87 80 138 120 195 148 88 45 195 67 266
55 l47 -8 -67 -7 c-106 -12 -167 -50 -298 -190 -61 -65 -133 -133 -160 -150
-52 -34 -66 -48 -27 -28 56 30 120 80 213 169 65 63 121 107 160 126 57 28 64
29 201 29 177 0 181 -2 135 -86 l-34 -61 91 47 c106 55 166 114 265 262 174
263 243 473 253 768 4 145 2 188 -16 294 -53 310 -208 629 -392 806 -45 44
-75 69 -66 55 80 -120 77 -166 -15 -223 -27 -17 -28 -17 -28 3 0 58 -77 131
-178 172 -50 19 -76 22 -212 23 -122 0 -362 20 -378 30 -2 2 7 19 19 39 20 34
22 65 8 116 -3 10 5 16 26 18 35 4 55 -18 55 -62 l0 -29 23 21 c12 11 45 31
72 44 43 20 66 23 160 23 123 0 186 -17 305 -80 l65 -34 -34 29 c-87 74 -287
149 -453 170 -110 14 -224 3 -312 -30 -56 -22 -75 -17 -49 12 32 37 84 51 208
58 l120 7 -130 1 c-84 0 -145 -4 -174 -13z m619 -395 c0 -5 -4 -10 -10 -10 -5
0 -10 5 -10 10 0 6 5 10 10 10 6 0 10 -4 10 -10z m123 -66 c3 -4 -1 -13 -9
-22 -12 -11 -18 -12 -27 -3 -9 9 -8 14 3 21 18 11 25 12 33 4z m362 -153 c8
-25 15 -56 15 -70 -1 -16 -10 2 -24 44 -12 39 -28 81 -35 95 l-12 25 20 -25
c11 -14 27 -45 36 -69z m-230 12 c-5 -6 -12 -7 -13 -2 -2 5 -7 7 -10 5 -4 -2
-13 2 -20 10 -11 12 -10 14 3 14 8 0 15 5 15 10 0 6 8 2 18 -7 12 -13 14 -21
7 -30z m158 -104 c-6 -6 -17 -8 -24 -3 -9 5 -8 9 7 14 23 9 31 3 17 -11z m22
-49 c4 -6 -7 -10 -24 -10 -30 0 -63 -23 -73 -51 -4 -11 -8 -11 -19 -2 -15 15
-16 13 35 47 40 27 70 33 81 16z m88 -237 c-13 -12 -23 -30 -23 -40 -1 -11 -6
-5 -15 15 -8 17 -21 32 -30 32 -22 0 -18 17 6 23 11 3 23 15 26 26 5 20 6 20
32 -7 l26 -27 -22 -22z m-93 -73 c0 -5 -7 -10 -15 -10 -8 0 -15 5 -15 10 0 6
7 10 15 10 8 0 15 -4 15 -10z m210 -36 c0 -8 -4 -12 -10 -9 -5 3 -10 10 -10
16 0 5 5 9 10 9 6 0 10 -7 10 -16z m-90 -105 c-14 -14 -17 -14 -36 0 -21 15
-21 16 -3 23 10 4 19 12 19 18 0 5 8 2 18 -7 15 -16 15 -20 2 -34z m67 -119
c14 0 13 -3 -3 -21 -10 -11 -20 -16 -22 -10 -2 6 -10 11 -18 11 -8 0 -11 -6
-7 -17 5 -15 3 -15 -14 2 -19 19 -19 20 -1 23 10 2 23 13 30 25 11 19 13 20
16 5 2 -10 11 -18 19 -18z m-90 -143 c12 -7 11 -12 -6 -24 -12 -8 -21 -22 -21
-31 -1 -12 -6 -8 -16 11 -8 15 -21 27 -29 27 -9 0 -4 10 13 28 23 23 28 25 36
12 5 -8 16 -19 23 -23z m153 -57 c0 -5 -4 -10 -10 -10 -5 0 -10 5 -10 10 0 6
5 10 10 10 6 0 10 -4 10 -10z m-145 -69 c7 -12 -12 -24 -25 -16 -11 7 -4 25
10 25 5 0 11 -4 15 -9z m130 -41 c11 -18 -5 -31 -26 -20 -11 6 -17 15 -14 21
8 12 32 12 40 -1z m-255 -65 c0 -8 -7 -15 -15 -15 -16 0 -20 12 -8 23 11 12
23 8 23 -8z m54 -86 c36 -29 33 -77 -6 -99 -25 -13 -31 -13 -55 0 -44 25 -44
87 -1 108 32 15 32 15 62 -9z m134 -77 c2 -7 -3 -12 -12 -12 -9 0 -16 7 -16
16 0 17 22 14 28 -4z m-388 -82 c0 -5 -4 -10 -10 -10 -5 0 -10 5 -10 10 0 6 5
10 10 10 6 0 10 -4 10 -10z m-90 -51 c0 -5 -7 -9 -15 -9 -15 0 -20 12 -9 23 8
8 24 -1 24 -14z m304 -11 c22 -35 -27 -74 -59 -48 -20 17 -19 47 3 59 23 14
42 10 56 -11z m-228 -68 c16 0 18 -9 5 -29 -6 -9 -15 -11 -27 -6 -11 5 -22 7
-26 7 -14 -3 -9 11 10 28 9 10 19 13 20 9 2 -5 10 -9 18 -9z m261 -84 c-7 -74
-47 -151 -108 -213 -29 -29 -56 -53 -61 -53 -5 0 15 30 43 68 53 68 86 133
110 210 7 23 14 42 17 42 3 0 2 -24 -1 -54z m-397 34 c0 -5 -7 -10 -15 -10 -8
0 -15 5 -15 10 0 6 7 10 15 10 8 0 15 -4 15 -10z m256 -63 l26 -14 -31 -13
c-19 -7 -34 -22 -37 -37 l-6 -24 -19 30 c-10 17 -30 34 -45 37 l-27 7 34 11
c26 8 36 19 44 45 l10 33 12 -31 c7 -16 25 -36 39 -44z m-357 6 c10 -8 11 -12
4 -13 -7 0 -10 -7 -6 -17 4 -11 3 -14 -6 -9 -6 4 -19 2 -28 -6 -15 -11 -16
-11 -10 6 5 11 3 22 -4 27 -8 5 -6 12 7 26 11 11 21 14 23 8 2 -5 11 -15 20
-22z m-179 -33 c0 -5 -4 -10 -9 -10 -6 0 -13 5 -16 10 -3 6 1 10 9 10 9 0 16
-4 16 -10z m320 -35 c0 -8 -4 -15 -10 -15 -5 0 -10 7 -10 15 0 8 5 15 10 15 6
0 10 -7 10 -15z m-520 -5 c0 -5 -7 -10 -15 -10 -8 0 -15 5 -15 10 0 6 7 10 15
10 8 0 15 -4 15 -10z m-230 -15 c0 -8 -4 -15 -10 -15 -5 0 -10 7 -10 15 0 8 5
15 10 15 6 0 10 -7 10 -15z m158 -55 c6 0 1 -10 -11 -22 -20 -21 -24 -21 -38
-8 -14 14 -14 17 0 37 14 19 18 20 27 7 6 -7 16 -14 22 -14z m187 10 c-3 -5
-10 -10 -16 -10 -5 0 -9 5 -9 10 0 6 7 10 16 10 8 0 12 -4 9 -10z m-1252 -102
c12 -6 46 -14 77 -18 l55 -7 -53 -2 c-46 -1 -112 19 -112 34 0 8 10 6 33 -7z
m957 -33 c0 -8 -4 -15 -10 -15 -5 0 -10 7 -10 15 0 8 5 15 10 15 6 0 10 -7 10
-15z m-130 -55 c0 -5 -7 -10 -16 -10 -8 0 -12 5 -9 10 3 6 10 10 16 10 5 0 9
-4 9 -10z m-160 -55 c-14 -17 -46 -20 -55 -5 -3 6 3 10 14 10 11 0 26 10 33
23 11 19 13 20 16 4 2 -10 -2 -24 -8 -32z m-400 19 c0 -8 -4 -12 -10 -9 -5 3
-10 10 -10 16 0 5 5 9 10 9 6 0 10 -7 10 -16z m220 12 c0 -11 -19 -15 -25 -6
-3 5 1 10 9 10 9 0 16 -2 16 -4z m470 -14 c0 -30 -140 -115 -243 -147 -90 -29
-127 -32 -50 -5 90 32 251 122 269 151 7 11 24 12 24 1z m-808 -34 c-6 -6 -16
-7 -22 -3 -9 6 -9 9 1 16 17 10 34 0 21 -13z m237 -34 c-6 -7 -7 -19 -3 -25 8
-13 -11 -4 -32 15 -15 14 5 34 28 28 14 -3 16 -8 7 -18z m162 -17 c-1 -12 -15
-9 -19 4 -3 6 1 10 8 8 6 -3 11 -8 11 -12z"/>
<path d="M3445 3997 c9 -15 21 -24 26 -21 12 7 12 34 0 34 -5 0 -17 3 -26 7
-16 6 -16 4 0 -20z"/>
<path d="M3354 3995 c26 -19 42 -19 26 0 -7 8 -20 15 -29 15 -13 -1 -13 -3 3
-15z"/>
<path d="M3601 3979 c14 -13 60 -53 103 -89 164 -138 326 -345 465 -595 76
-136 114 -233 156 -401 49 -192 58 -279 52 -504 -5 -203 -24 -315 -78 -477
-47 -141 -204 -411 -302 -517 -30 -33 -24 -22 26 54 129 194 226 402 267 573
28 117 24 140 -6 29 -62 -237 -243 -555 -421 -742 -241 -254 -574 -452 -899
-534 -358 -91 -676 -82 -955 25 -80 31 -220 117 -289 179 l-35 31 50 -25 c83
-40 215 -83 331 -108 96 -20 135 -23 329 -22 205 0 226 2 315 27 253 69 483
209 680 413 136 141 163 187 39 69 -226 -219 -446 -351 -691 -420 -155 -42
-332 -59 -478 -45 -218 22 -517 100 -642 167 -118 64 -340 294 -468 485 -129
194 -218 399 -271 628 -9 41 -18 63 -18 49 -1 -38 64 -293 105 -412 186 -532
683 -974 1273 -1130 111 -29 125 -31 321 -31 271 0 432 29 653 118 439 179
826 531 1021 930 139 284 203 653 166 956 -26 210 -116 481 -216 651 -52 89
-246 361 -300 422 -19 20 -34 40 -34 43 0 10 88 -90 163 -185 78 -97 99 -120
73 -76 -89 148 -329 382 -481 470 l-30 17 26 -23z"/>
<path d="M3795 3990 c3 -5 8 -10 11 -10 2 0 4 5 4 10 0 6 -5 10 -11 10 -5 0
-7 -4 -4 -10z"/>
<path d="M2183 3913 c-7 -3 -13 -16 -13 -29 0 -22 4 -25 27 -22 16 2 29 10 31
20 4 18 -26 38 -45 31z"/>
<path d="M3494 3898 c-4 -5 0 -14 7 -19 20 -13 29 -11 29 5 0 18 -27 29 -36
14z"/>
<path d="M2927 3860 c-46 -12 -91 -34 -134 -67 -37 -27 -45 -50 -11 -32 13 7
41 9 74 5 32 -4 80 0 124 9 82 17 160 19 244 5 33 -5 62 -8 64 -6 6 7 -80 53
-133 71 -59 21 -175 28 -228 15z"/>
<path d="M3540 3807 c0 -2 15 -16 33 -33 l32 -29 -29 33 c-28 30 -36 37 -36
29z"/>
<path d="M3610 3802 c0 -12 19 -26 26 -19 2 2 -2 10 -11 17 -9 8 -15 8 -15 2z"/>
<path d="M2476 3785 c4 -8 10 -12 15 -9 14 8 10 24 -6 24 -9 0 -12 -6 -9 -15z"/>
<path d="M3727 3701 c3 -12 13 -18 28 -17 22 1 22 2 8 19 -21 23 -42 22 -36
-2z"/>
<path d="M1896 3672 c-4 -8 -17 -12 -27 -9 -11 3 -17 1 -14 -3 3 -5 0 -12 -6
-15 -7 -5 -2 -12 13 -19 12 -6 27 -21 32 -32 9 -20 10 -20 28 -2 22 22 23 28
4 28 -9 0 -16 12 -18 33 -2 22 -6 28 -12 19z"/>
<path d="M3645 3582 c49 -51 91 -92 93 -92 8 0 -103 117 -142 149 -22 19 -1
-7 49 -57z"/>
<path d="M1440 3645 c0 -8 7 -15 15 -15 8 0 15 7 15 15 0 8 -7 15 -15 15 -8 0
-15 -7 -15 -15z"/>
<path d="M3712 3598 c34 -28 89 -77 122 -107 51 -49 56 -52 40 -23 -33 58 -72
99 -135 141 -86 58 -103 51 -27 -11z"/>
<path d="M2805 3568 c-36 -19 -95 -67 -146 -118 -140 -138 -195 -273 -219
-535 -11 -129 -25 -191 -59 -268 -11 -27 -21 -57 -21 -66 0 -25 28 -47 70 -56
39 -9 97 -63 106 -101 4 -15 13 -24 25 -24 23 0 25 27 5 75 -16 36 -23 78 -16
83 3 2 22 1 42 -3 82 -15 121 23 96 94 l-13 36 -5 -49 c-3 -27 -10 -51 -15
-53 -6 -2 -32 17 -59 42 l-49 44 5 69 c6 80 47 181 89 216 26 22 162 66 204
66 10 0 26 -6 34 -14 31 -27 90 -24 128 7 22 19 36 23 68 19 l39 -5 -78 -29
c-74 -27 -85 -28 -181 -22 -111 7 -160 -2 -191 -38 -19 -21 -19 -21 3 -9 33
17 86 13 156 -10 98 -33 173 -24 281 35 48 26 84 51 81 56 -8 12 33 33 51 26
8 -3 13 -2 10 3 -3 5 8 14 24 21 16 7 34 18 40 25 8 10 3 10 -29 -1 -44 -15
-70 -10 -146 28 -63 32 -149 52 -203 46 -23 -2 -42 -2 -42 0 0 12 109 47 180
57 l85 12 -59 8 c-141 19 -310 -13 -422 -81 -30 -18 -54 -27 -54 -21 1 30 62
162 103 223 25 38 85 108 132 157 l88 87 -39 0 c-24 0 -62 -13 -99 -32z m169
-517 c3 -5 -2 -19 -12 -31 -22 -28 -65 -22 -83 11 -10 20 -9 21 19 14 18 -3
33 -2 37 4 8 13 32 14 39 2z m-514 -485 c0 -11 -19 -15 -25 -6 -3 5 1 10 9 10
9 0 16 -2 16 -4z"/>
<path d="M3927 3517 c81 -86 163 -206 227 -335 111 -221 151 -431 142 -732 -3
-102 -8 -201 -11 -220 -5 -34 -5 -34 5 -6 19 61 33 233 27 351 -15 302 -94
554 -247 782 -63 94 -183 233 -202 233 -6 0 21 -33 59 -73z"/>
<path d="M1370 3565 c-9 -11 -10 -19 -3 -26 7 -7 14 -5 23 6 9 11 10 19 3 26
-7 7 -14 5 -23 -6z"/>
<path d="M3690 3486 c0 -4 15 -34 34 -65 168 -280 249 -614 225 -938 -14 -184
-72 -390 -159 -563 -38 -76 -38 -81 3 -69 45 12 70 47 117 167 179 455 135
913 -129 1344 -54 89 -90 138 -91 124z"/>
<path d="M2297 3469 c-17 -10 -17 -12 -2 -30 10 -10 15 -25 11 -34 -4 -13 -2
-14 14 -5 24 13 24 17 5 36 -8 8 -12 21 -9 29 7 18 5 18 -19 4z"/>
<path d="M3766 3451 c97 -120 226 -412 270 -616 23 -104 22 -348 -1 -499 -9
-59 -14 -110 -12 -112 8 -9 44 271 47 364 0 29 19 9 23 -25 2 -21 4 0 5 47 3
149 -39 361 -100 508 -39 93 -129 230 -199 303 -30 30 -45 44 -33 30z"/>
<path d="M1280 3435 c0 -9 5 -15 11 -13 6 2 11 8 11 13 0 5 -5 11 -11 13 -6 2
-11 -4 -11 -13z"/>
<path d="M1987 3370 c-75 -80 -110 -156 -111 -240 -1 -36 3 -80 8 -98 8 -32 7
-34 -15 -27 -13 4 -44 21 -69 38 l-45 32 23 -33 c13 -17 31 -36 40 -42 27 -15
0 -12 -62 9 -56 18 -57 18 -40 -1 34 -37 85 -60 165 -74 44 -7 85 -16 90 -19
5 -4 42 -6 82 -6 58 0 88 6 152 32 71 28 84 31 120 21 49 -13 56 -8 17 12 -50
26 -104 30 -148 11 -73 -31 -160 -19 -184 25 -14 27 -1 25 40 -5 45 -33 79
-32 125 5 45 36 53 36 129 5 33 -13 61 -23 63 -21 2 2 -13 18 -33 36 -44 38
-94 61 -188 84 -82 20 -132 45 -165 80 l-24 26 66 0 c72 0 186 -21 243 -45 51
-21 64 -19 64 9 0 18 -8 27 -31 35 -42 14 -236 34 -293 30 -41 -4 -46 -2 -46
16 1 30 38 106 67 138 15 15 24 27 21 27 -3 0 -31 -27 -61 -60z m170 -343
c-12 -38 -87 -38 -87 0 0 15 7 18 45 15 27 -3 44 -9 42 -15z"/>
<path d="M3930 3360 c0 -5 5 -10 10 -10 6 0 10 5 10 10 0 6 -4 10 -10 10 -5 0
-10 -4 -10 -10z"/>
<path d="M1203 3314 c-12 -14 -20 -31 -16 -39 6 -17 23 -20 23 -5 0 6 6 10 14
10 19 0 32 20 19 29 -6 3 -12 11 -14 18 -2 7 -12 3 -26 -13z"/>
<path d="M1580 3320 c0 -5 7 -10 16 -10 8 0 12 5 9 10 -3 6 -10 10 -16 10 -5
0 -9 -4 -9 -10z"/>
<path d="M880 3279 c-12 -23 -20 -43 -18 -45 3 -2 14 17 26 41 27 56 20 60 -8
4z"/>
<path d="M4020 3268 c11 -18 20 -40 20 -49 0 -9 7 -19 15 -23 22 -8 19 4 -15
57 -33 53 -51 65 -20 15z"/>
<path d="M1000 3231 c0 -6 5 -13 10 -16 6 -3 10 1 10 9 0 9 -4 16 -10 16 -5 0
-10 -4 -10 -9z"/>
<path d="M1572 3218 c-18 -18 -14 -46 7 -58 11 -5 22 -10 25 -10 8 0 36 31 36
40 0 13 -30 40 -44 40 -6 0 -17 -5 -24 -12z"/>
<path d="M856 3165 c-9 -26 -7 -32 5 -12 6 10 9 21 6 23 -2 3 -7 -2 -11 -11z"/>
<path d="M751 3144 c0 -11 3 -14 6 -6 3 7 2 16 -1 19 -3 4 -6 -2 -5 -13z"/>
<path d="M1158 3121 c-15 -18 -15 -20 2 -36 17 -16 19 -15 30 4 6 12 7 21 1
21 -5 0 -11 7 -13 15 -2 13 -6 13 -20 -4z"/>
<path d="M812 3038 c-49 -154 -66 -271 -66 -473 0 -99 6 -220 13 -270 15 -104
62 -294 85 -345 9 -19 14 -26 10 -15 -28 90 -74 297 -83 370 -16 129 -14 380
4 499 8 55 28 151 44 211 16 61 28 112 26 113 -2 2 -17 -38 -33 -90z"/>
<path d="M891 3069 c-11 -34 -19 -64 -17 -66 2 -2 13 24 25 58 11 34 19 64 17
66 -2 2 -13 -24 -25 -58z"/>
<path d="M4082 3106 c1 -10 8 -17 13 -17 15 1 12 24 -3 29 -9 3 -13 -2 -10
-12z"/>
<path d="M1011 3036 c-10 -12 -6 -26 10 -26 11 0 19 29 10 35 -5 2 -14 -1 -20
-9z"/>
<path d="M3200 3020 c-8 -5 -10 -10 -5 -10 6 0 17 5 25 10 8 5 11 10 5 10 -5
0 -17 -5 -25 -10z"/>
<path d="M4150 3000 c0 -5 5 -10 11 -10 5 0 7 5 4 10 -3 6 -8 10 -11 10 -2 0
-4 -4 -4 -10z"/>
<path d="M1555 2973 c-80 -41 -131 -131 -123 -215 7 -69 52 -136 118 -175 30
-18 65 -33 77 -33 22 0 22 2 -10 30 -81 70 -103 206 -53 315 15 33 34 67 43
77 15 17 15 18 -3 18 -10 -1 -32 -8 -49 -17z"/>
<path d="M851 2944 c0 -11 3 -14 6 -6 3 7 2 16 -1 19 -3 4 -6 -2 -5 -13z"/>
<path d="M4127 2915 c3 -22 9 -49 13 -60 7 -18 9 -18 15 -3 4 9 -3 36 -14 60
l-20 43 6 -40z"/>
<path d="M1124 2909 c-8 -14 11 -33 25 -25 6 4 11 14 11 22 0 16 -26 19 -36 3z"/>
<path d="M900 2790 c0 -5 5 -10 10 -10 6 0 10 5 10 10 0 6 -4 10 -10 10 -5 0
-10 -4 -10 -10z"/>
<path d="M3035 2757 c-12 -19 -13 -31 -6 -51 13 -33 59 -36 87 -5 17 19 17 23
3 47 -20 37 -62 41 -84 9z"/>
<path d="M4218 2730 c4 -25 7 -126 7 -225 -1 -186 -23 -368 -50 -411 -7 -11
-26 -61 -41 -110 -38 -127 -140 -321 -233 -444 -43 -58 -130 -159 -192 -225
-66 -69 -93 -102 -64 -78 228 190 421 473 506 743 18 58 36 107 40 110 4 3 15
50 25 105 22 121 27 512 7 555 -11 22 -11 19 -5 -20z"/>
<path d="M2130 2695 c-7 -8 -22 -15 -34 -15 -19 -1 -20 -1 -3 -11 10 -6 26
-24 36 -40 l18 -29 19 22 c16 18 17 21 2 15 -20 -7 -33 22 -23 53 8 24 2 26
-15 5z"/>
<path d="M4153 2625 c0 -44 2 -61 4 -37 2 23 2 59 0 80 -2 20 -4 1 -4 -43z"/>
<path d="M1055 2660 c-4 -7 -16 -10 -26 -7 -24 6 -24 -5 -1 -27 18 -15 19 -15
31 10 12 27 9 45 -4 24z"/>
<path d="M3187 2631 c3 -12 -3 -24 -18 -35 -23 -16 -23 -16 -2 -16 21 0 53 24
53 39 0 9 -22 31 -31 31 -4 0 -5 -8 -2 -19z"/>
<path d="M862 2561 c-7 -4 -10 -15 -6 -24 5 -15 7 -15 21 -1 18 17 5 38 -15
25z"/>
<path d="M1052 2538 c-97 -47 -148 -177 -107 -276 21 -48 80 -109 121 -122 42
-14 106 -15 129 -3 12 7 5 10 -28 10 -54 0 -88 20 -122 71 -65 99 -49 234 37
314 36 33 28 34 -30 6z"/>
<path d="M1566 2505 c-3 -10 -1 -24 6 -32 10 -12 13 -12 21 2 6 12 5 22 -6 32
-13 13 -15 13 -21 -2z"/>
<path d="M2080 2471 c0 -6 5 -13 11 -17 6 -3 8 -16 5 -28 -5 -19 -1 -21 34
-21 31 0 37 2 30 15 -5 8 -4 22 1 32 8 15 6 17 -20 12 -16 -4 -31 -1 -35 5 -9
13 -26 15 -26 2z"/>
<path d="M1434 2412 c10 -55 37 -102 75 -130 20 -14 38 -28 41 -30 3 -2 -3 -9
-13 -16 -9 -7 -17 -18 -17 -24 0 -21 100 -159 162 -223 34 -36 89 -85 121
-109 l57 -43 74 7 c52 5 97 2 152 -10 102 -21 242 -14 342 17 39 12 72 25 72
29 0 4 -19 11 -42 14 -60 9 -183 64 -264 119 -38 25 -123 100 -189 167 -188
191 -279 223 -435 156 -20 -8 -88 36 -119 77 l-23 32 6 -33z m383 -158 c27
-17 83 -71 128 -125 88 -106 126 -141 199 -188 28 -17 44 -31 37 -31 -23 0
-121 53 -162 88 -33 28 -43 32 -50 21 -7 -11 -12 -9 -25 11 -41 60 -100 106
-155 121 -35 9 -54 19 -54 29 0 23 71 17 105 -9 37 -27 48 -27 24 0 -37 43
-97 79 -129 79 -56 0 -73 -44 -33 -87 21 -22 21 -23 1 -23 -24 0 -59 36 -68
70 -4 18 0 34 16 54 20 26 27 28 71 24 29 -3 66 -16 95 -34z m-30 -210 c-9 -9
-28 6 -21 18 4 6 10 6 17 -1 6 -6 8 -13 4 -17z m73 -95 c0 -5 -4 -9 -10 -9 -5
0 -10 7 -10 16 0 8 5 12 10 9 6 -3 10 -10 10 -16z"/>
<path d="M3100 2389 c0 -5 5 -7 10 -4 6 3 10 8 10 11 0 2 -4 4 -10 4 -5 0 -10
-5 -10 -11z"/>
<path d="M2580 2370 c-8 -6 -33 -7 -56 -4 -32 5 -52 0 -92 -20 -60 -31 -69
-31 -94 -9 -28 25 -33 8 -6 -20 20 -20 38 -25 107 -31 97 -8 121 -18 121 -50
0 -25 -21 -36 -69 -36 -22 0 -20 -3 20 -40 24 -21 50 -39 57 -40 7 0 39 21 72
48 l60 47 -53 5 c-38 4 -53 9 -55 22 -4 23 22 34 94 41 80 6 118 25 122 57 l2
25 -16 -22 c-22 -31 -50 -29 -117 7 -61 32 -74 35 -97 20z"/>
<path d="M3034 2345 c1 -40 6 -43 31 -15 15 16 15 22 5 35 -21 26 -37 17 -36
-20z"/>
<path d="M4097 2332 c-15 -84 -70 -238 -114 -322 -59 -110 -100 -167 -195
-267 -43 -45 -78 -85 -78 -89 0 -17 143 133 197 206 77 103 77 103 47 30 -116
-285 -303 -545 -464 -643 -30 -18 -103 -72 -161 -119 -248 -200 -461 -281
-849 -322 -69 -8 -109 -14 -89 -15 67 -2 254 21 372 45 500 105 952 427 1150
819 102 203 204 557 195 677 l-3 43 -8 -43z"/>
<path d="M1180 2330 c0 -4 6 -13 14 -19 10 -9 15 -8 19 3 3 8 -2 16 -14 19
-10 3 -19 2 -19 -3z"/>
<path d="M852 2280 c0 -14 2 -19 5 -12 2 6 2 18 0 25 -3 6 -5 1 -5 -13z"/>
<path d="M4160 2240 c0 -35 3 -60 6 -57 8 7 7 108 -1 115 -3 3 -5 -23 -5 -58z"/>
<path d="M4012 2180 c0 -19 2 -27 5 -17 2 9 2 25 0 35 -3 9 -5 1 -5 -18z"/>
<path d="M1225 2080 c-3 -5 1 -10 9 -10 9 0 16 5 16 10 0 6 -4 10 -9 10 -6 0
-13 -4 -16 -10z"/>
<path d="M1297 2083 c-2 -5 -7 -21 -11 -38 -7 -29 -7 -29 13 -11 12 11 21 25
21 32 0 15 -17 28 -23 17z"/>
<path d="M4201 2034 c-7 -30 -11 -57 -9 -60 3 -2 11 21 18 51 7 30 11 57 8 60
-3 3 -10 -20 -17 -51z"/>
<path d="M1020 2016 c0 -11 40 -86 45 -86 3 0 -4 19 -16 43 -23 45 -29 54 -29
43z"/>
<path d="M960 1955 c0 -5 5 -17 10 -25 5 -8 10 -10 10 -5 0 6 -5 17 -10 25 -5
8 -10 11 -10 5z"/>
<path d="M1386 1916 c3 -9 11 -16 16 -16 13 0 5 23 -10 28 -7 2 -10 -2 -6 -12z"/>
<path d="M990 1885 c0 -23 161 -305 216 -378 219 -292 554 -481 869 -492 108
-4 108 -4 32 5 -156 18 -358 93 -529 197 -199 120 -400 337 -523 563 -60 111
-65 118 -65 105z"/>
<path d="M1285 1840 c-3 -5 -15 -10 -26 -10 -19 0 -19 -1 -3 -25 l17 -26 23
22 c12 11 20 27 17 35 -6 16 -19 18 -28 4z"/>
<path d="M1510 1815 c0 -9 5 -15 11 -13 6 2 11 8 11 13 0 5 -5 11 -11 13 -6 2
-11 -4 -11 -13z"/>
<path d="M1917 1789 c-35 -8 -117 -45 -117 -53 0 -2 30 8 68 21 123 45 262 19
392 -73 l35 -25 -35 31 c-47 42 -143 88 -209 100 -62 12 -82 11 -134 -1z"/>
<path d="M3576 1600 c-27 -32 -55 -61 -62 -64 -8 -3 -14 -10 -14 -16 0 -17 76
49 106 91 42 61 24 54 -30 -11z"/>
<path d="M3193 1427 c-12 -7 -61 -54 -109 -105 -47 -51 -115 -113 -149 -137
-135 -97 -354 -184 -567 -225 l-103 -20 125 5 c262 9 464 71 647 197 76 52
125 102 209 210 l52 66 -25 11 c-31 14 -52 13 -80 -2z"/>
</g>
</svg>