<?xml version="1.0" standalone="no"?>
<!DOCTYPE svg PUBLIC "-//W3C//DTD SVG 20010904//EN"
 "http://www.w3.org/TR/2001/REC-SVG-20010904/DTD/svg10.dtd">
<svg version="1.0" xmlns="http://www.w3.org/2000/svg"
 width="512.000000pt" height="512.000000pt" viewBox="0 0 512.000000 512.000000"
 preserveAspectRatio="xMidYMid meet">
<metadata>
Created by potrace 1.16, written by Peter Selinger 2001-2019
</metadata>
<g transform="translate(0.000000,512.000000) scale(0.100000,-0.100000)"
fill="#000000" stroke="none">
<path d="M2065 4699 c-43 -38 -47 -76 -10 -85 29 -7 33 -20 8 -28 -201 -57
-215 -66 -253 -149 -32 -70 -55 -95 -120 -127 -44 -23 -60 -37 -81 -74 -11
-18 -9 -18 22 2 67 44 235 131 310 161 90 36 202 64 326 82 l88 12 25 56 c13
30 39 75 58 99 35 46 35 65 0 43 -11 -7 -18 -8 -15 -4 7 11 -85 6 -171 -8
-112 -20 -176 -93 -144 -164 11 -23 9 -24 -36 -31 -68 -10 -117 -29 -168 -66
-38 -27 -47 -30 -54 -18 -18 28 -10 56 23 88 41 39 192 95 172 63 -3 -5 -34
-19 -69 -31 -35 -11 -72 -31 -83 -43 -30 -32 -45 -65 -33 -72 5 -3 18 12 29
34 23 44 40 59 50 43 4 -7 27 -5 71 7 64 18 65 18 72 60 4 23 9 45 12 50 3 4
-3 16 -14 26 -28 25 -25 32 13 27 21 -2 40 3 55 15 21 17 22 19 7 41 -22 30
-48 28 -90 -9z m345 -24 c0 -2 -19 -14 -42 -26 -35 -18 -51 -20 -107 -14 -63
6 -65 5 -38 -9 15 -8 43 -18 62 -22 19 -3 35 -9 35 -13 0 -15 -67 -71 -102
-85 -51 -22 -75 -20 -89 5 -31 59 25 130 117 148 74 16 164 24 164 16z"/>
<path d="M2161 4584 c-16 -20 -18 -31 -10 -45 14 -27 25 -23 24 9 0 20 5 28
21 30 12 2 24 -3 27 -11 4 -10 0 -13 -13 -10 -21 6 -32 -8 -21 -26 7 -11 14
-10 35 4 32 21 33 39 4 59 -31 22 -43 20 -67 -10z"/>
<path d="M2600 4704 c0 -18 59 -110 97 -153 l39 -44 136 -23 c75 -13 169 -34
210 -48 40 -13 74 -23 76 -21 9 8 -51 106 -78 129 -37 31 -52 32 -91 9 -45
-27 -26 -48 24 -28 14 6 17 2 17 -24 l0 -32 -39 23 c-44 27 -147 136 -116 124
11 -4 32 -13 48 -18 18 -7 27 -17 28 -31 l0 -22 16 23 c17 25 69 30 106 11 44
-23 91 -72 93 -97 6 -54 26 -81 77 -107 33 -16 53 -21 56 -14 2 6 -2 16 -8 22
-19 19 -12 34 27 51 80 36 127 3 119 -82 l-5 -42 39 35 c43 39 57 42 99 20 68
-35 92 -110 45 -141 -21 -14 -31 -15 -50 -6 -49 23 -23 -8 87 -99 155 -130
231 -208 317 -328 85 -117 137 -161 231 -192 36 -12 82 -30 102 -40 39 -20 75
-24 96 -11 9 6 -4 21 -43 53 -64 51 -101 101 -110 152 -9 46 -46 104 -124 195
-78 91 -99 94 -29 5 124 -157 138 -185 117 -225 -12 -24 -28 -38 -42 -38 -5 0
1 12 12 26 27 34 26 57 -1 88 -32 34 -61 40 -88 18 -28 -23 -19 -48 10 -29 25
15 54 -1 58 -32 l4 -23 -21 21 c-24 24 -34 26 -49 8 -20 -24 21 -74 70 -88 52
-14 104 -39 176 -87 71 -47 50 -53 -30 -9 -35 19 -94 45 -133 57 -38 13 -82
31 -97 42 -40 28 -88 133 -97 214 l-8 69 -2 -60 c-1 -51 -3 -57 -14 -40 -7 12
-10 53 -9 104 2 67 -1 88 -14 103 -20 22 -67 24 -84 3 -16 -20 -5 -45 20 -45
22 0 27 16 8 23 -7 2 -10 8 -6 12 10 11 38 -2 38 -17 0 -25 -18 -40 -45 -40
-36 0 -131 67 -173 123 -33 42 -34 45 -27 107 l7 64 -46 44 c-32 30 -62 48
-100 59 -30 9 -60 23 -68 32 -7 9 -28 22 -46 30 -29 12 -41 12 -88 -2 -59 -17
-120 -9 -144 20 -15 18 -9 19 25 3 20 -9 28 -9 38 1 9 10 9 11 -4 6 -9 -3 -36
8 -65 29 -27 19 -69 47 -94 62 -25 15 -61 40 -81 55 -27 21 -58 32 -123 44
-112 19 -276 31 -276 19z m278 -35 c99 -20 180 -61 135 -67 -12 -2 -50 4 -84
12 -33 9 -65 14 -70 10 -5 -3 -9 2 -9 10 0 8 -4 18 -10 21 -20 12 -9 -23 25
-80 20 -32 33 -60 30 -63 -2 -3 -32 21 -65 52 -34 31 -79 66 -101 77 -22 11
-55 29 -72 40 l-32 20 80 -6 c44 -4 122 -16 173 -26z m200 -155 c26 -31 47
-74 37 -74 -1 0 -21 25 -44 55 -46 61 -40 76 7 19z m1077 -794 c-3 -5 -12 -10
-20 -10 -8 0 -17 5 -20 10 -4 6 5 10 20 10 15 0 24 -4 20 -10z m109 -59 c-2
-2 -15 4 -29 13 -22 14 -24 20 -14 32 10 12 14 10 29 -13 10 -15 16 -30 14
-32z"/>
<path d="M2488 4672 c-9 -15 -29 -43 -45 -62 l-27 -35 33 30 c31 28 67 83 59
90 -2 2 -11 -8 -20 -23z"/>
<path d="M2555 4658 c-18 -81 -98 -280 -119 -293 -11 -7 -64 -20 -117 -29
-210 -35 -453 -126 -623 -235 -65 -40 -52 -39 32 3 180 89 418 173 592 207 56
10 110 24 121 29 23 13 61 85 93 180 l24 72 11 -53 c6 -30 18 -75 27 -100 l15
-46 127 -18 c393 -54 627 -174 1002 -510 47 -42 94 -81 105 -87 24 -13 31 -20
-123 126 -195 184 -420 338 -585 398 -109 39 -254 74 -374 88 -54 7 -108 16
-119 20 -23 9 -43 77 -64 209 -11 76 -16 83 -25 39z"/>
<path d="M3120 4624 c129 -46 134 -48 126 -36 -6 9 -193 73 -212 72 -5 -1 34
-17 86 -36z"/>
<path d="M1898 4607 c-38 -12 -68 -25 -68 -29 0 -7 138 37 148 47 9 9 -12 4
-80 -18z"/>
<path d="M2601 4616 c-1 -15 80 -178 85 -173 3 3 -15 45 -40 93 -25 49 -45 85
-45 80z"/>
<path d="M2456 4569 c-39 -42 -60 -84 -52 -103 2 -6 5 -4 5 5 1 9 21 44 46 78
25 34 43 61 41 61 -2 0 -20 -18 -40 -41z"/>
<path d="M1771 4480 c-29 -70 -66 -120 -92 -120 -4 0 -15 8 -24 17 -20 20 -96
26 -141 12 -44 -13 -80 -56 -99 -116 -10 -29 -20 -53 -23 -53 -3 0 -18 15 -34
33 l-28 32 31 -60 c26 -50 30 -68 27 -113 l-5 -53 30 28 c50 49 60 77 52 159
-6 70 -6 74 20 100 23 23 32 26 68 20 23 -4 50 -7 59 -7 9 0 22 -7 29 -15 6
-8 18 -14 26 -14 28 0 73 31 89 62 17 33 56 159 51 165 -2 1 -18 -33 -36 -77z"/>
<path d="M3320 4554 c0 -3 24 -16 53 -28 67 -30 236 -127 310 -179 31 -22 59
-38 62 -35 9 8 -208 145 -311 197 -102 51 -114 56 -114 45z"/>
<path d="M1545 4452 c-111 -64 -190 -117 -201 -133 -9 -15 30 6 86 46 25 18
79 51 120 75 91 52 118 70 105 70 -6 0 -55 -26 -110 -58z"/>
<path d="M1720 4466 c0 -9 5 -16 10 -16 6 0 10 4 10 9 0 6 -4 13 -10 16 -5 3
-10 -1 -10 -9z"/>
<path d="M1674 4429 c-3 -6 -2 -15 2 -19 12 -12 38 5 30 19 -9 14 -23 14 -32
0z"/>
<path d="M3348 4413 c-30 -8 -20 -30 36 -85 53 -53 115 -108 121 -108 2 0 1
12 -1 28 -10 68 54 106 86 49 14 -27 14 -29 -10 -48 l-24 -21 29 4 c26 3 30 8
33 35 4 42 -34 83 -77 83 -33 0 -71 -39 -71 -73 0 -20 -1 -20 -25 3 -19 18
-25 34 -25 66 0 60 -22 80 -72 67z"/>
<path d="M1286 4329 c-132 -100 -410 -388 -447 -464 -11 -22 2 -8 141 149 80
91 175 182 355 339 50 44 22 30 -49 -24z"/>
<path d="M2338 4373 c7 -3 16 -2 19 1 4 3 -2 6 -13 5 -11 0 -14 -3 -6 -6z"/>
<path d="M2185 4354 c-119 -26 -245 -73 -365 -136 -313 -166 -476 -312 -672
-606 -224 -335 -262 -413 -310 -643 -30 -143 -32 -168 -32 -349 0 -281 34
-446 144 -703 52 -120 203 -400 253 -467 212 -286 657 -547 1082 -633 157 -32
440 -31 602 1 219 44 430 131 613 253 143 96 387 341 480 484 115 175 228 417
274 585 94 342 54 745 -109 1087 -29 62 -51 113 -47 113 4 0 2 4 -4 8 -6 4
-43 54 -82 112 -92 137 -196 255 -370 417 -161 151 -241 207 -432 302 -184 91
-405 161 -509 161 -16 0 -42 5 -58 11 -25 9 -27 9 -12 -6 8 -8 54 -22 102 -31
178 -30 370 -99 567 -202 139 -72 206 -121 335 -244 267 -254 469 -550 553
-808 107 -328 125 -593 61 -875 -43 -188 -164 -449 -296 -640 -78 -112 -370
-398 -480 -471 -250 -165 -523 -250 -833 -261 -142 -5 -183 -2 -294 17 -277
47 -539 150 -777 307 -250 166 -368 306 -529 631 -149 301 -229 626 -217 887
5 125 51 377 88 488 23 68 79 190 85 184 2 -2 -13 -51 -35 -108 -36 -97 -60
-180 -48 -169 3 3 33 77 67 165 162 420 301 595 723 908 70 52 201 123 293
158 67 26 225 70 294 82 22 4 21 4 -5 5 -16 0 -61 -6 -100 -14z"/>
<path d="M2548 4289 c-20 -82 -109 -264 -120 -246 -4 7 -8 28 -9 47 0 19 -9
67 -19 105 l-18 70 6 -81 c5 -85 -10 -175 -33 -194 -16 -13 -34 30 -71 163
l-25 92 6 -71 c2 -38 11 -91 19 -117 8 -26 12 -47 11 -47 -12 0 -145 194 -146
213 -1 19 -2 18 -9 -7 -12 -37 6 -181 26 -215 l15 -26 -6 30 c-11 49 -25 139
-25 155 1 35 98 -120 110 -176 5 -19 4 -34 -1 -34 -5 0 -9 6 -9 13 0 19 -50
121 -56 114 -3 -3 2 -26 10 -51 23 -66 21 -88 -6 -84 -22 3 -127 143 -165 218
-26 53 -26 18 1 -100 13 -58 23 -106 21 -108 -1 -1 -35 41 -75 93 -40 53 -75
94 -77 91 -12 -12 23 -125 59 -193 21 -41 37 -77 34 -81 -3 -3 -6 0 -6 6 0 12
-49 71 -141 170 l-59 63 20 -50 c11 -28 40 -91 65 -142 l46 -91 -34 26 c-19
15 -58 53 -87 87 -29 33 -55 58 -58 55 -2 -3 0 -12 6 -19 7 -8 9 -16 6 -19 -3
-3 13 -46 35 -96 23 -49 41 -96 41 -103 0 -8 -45 31 -100 86 -118 117 -125
110 -48 -45 29 -58 54 -109 57 -114 7 -15 -99 63 -147 108 l-44 41 22 -35 c11
-19 28 -46 37 -59 17 -23 16 -23 -2 -18 -31 10 -128 27 -132 24 -1 -2 11 -25
27 -51 17 -26 42 -69 56 -97 l25 -51 -67 71 c-36 39 -71 71 -76 71 -5 0 16
-30 46 -67 32 -38 54 -74 51 -82 -3 -7 0 -20 6 -27 33 -40 -47 5 -138 78 -40
32 -73 55 -73 52 0 -4 36 -44 80 -90 113 -118 105 -137 -15 -38 -77 62 -69 38
11 -35 37 -34 63 -61 59 -61 -5 0 -62 29 -127 65 -118 64 -138 73 -138 57 0
-14 61 -106 112 -166 27 -32 47 -61 44 -63 -3 -3 -44 15 -91 41 -48 25 -85 40
-83 33 2 -6 47 -40 99 -74 104 -69 102 -81 -6 -29 -38 19 -71 33 -73 31 -2 -2
26 -21 63 -42 37 -21 60 -39 52 -41 -8 -2 -57 13 -108 33 -103 40 -125 39
-114 -3 12 -49 33 -71 85 -86 40 -12 138 -66 120 -66 -3 0 -46 11 -95 25 -50
14 -97 25 -105 24 -20 0 102 -56 151 -69 47 -13 52 -25 7 -14 -30 6 -31 5 -19
-10 12 -14 6 -14 -40 5 -30 11 -64 25 -75 29 -12 5 -28 18 -36 28 -15 23 -108
42 -108 23 0 -20 78 -68 180 -111 55 -24 98 -45 96 -47 -2 -2 -30 3 -62 11
-96 24 -184 37 -204 31 -54 -17 66 -92 186 -116 54 -11 63 -15 43 -20 -13 -4
-43 -7 -67 -8 -54 -1 -47 -17 13 -25 24 -4 47 -12 51 -17 3 -6 -4 -8 -18 -5
-94 21 -298 48 -298 39 0 -11 96 -44 190 -63 137 -29 153 -39 65 -41 -100 -2
-141 -17 -50 -18 79 -1 114 -15 132 -51 13 -27 11 -32 -15 -35 -9 -1 -24 -5
-32 -8 -229 -83 -310 -114 -310 -121 0 -2 64 -2 143 1 176 6 221 -2 225 -40 3
-26 1 -27 -40 -27 -24 0 -81 -7 -128 -15 -47 -8 -87 -15 -90 -15 -2 0 1 -5 7
-11 6 -6 57 -15 113 -19 57 -5 105 -11 107 -14 8 -7 -96 -26 -145 -26 -80 0
-77 -15 6 -29 114 -19 115 -22 17 -47 l-90 -23 70 5 c39 3 97 8 130 11 73 7
68 -3 -12 -24 -80 -20 -244 -103 -206 -103 6 0 75 16 154 35 79 19 145 33 146
31 10 -10 -147 -68 -222 -82 -108 -19 -127 -25 -103 -31 10 -2 55 3 101 11 46
9 87 16 91 16 5 0 -19 -23 -53 -52 -34 -28 -61 -57 -61 -65 0 -22 66 -15 126
12 60 27 135 47 144 38 3 -3 0 -8 -7 -10 -6 -2 -53 -37 -105 -77 -84 -67 -146
-131 -136 -142 9 -8 197 57 232 81 49 33 56 32 21 -5 -16 -17 -65 -51 -108
-76 -43 -25 -77 -47 -75 -50 2 -2 49 9 104 25 54 16 101 27 103 25 3 -3 -28
-52 -68 -110 -40 -58 -71 -108 -68 -110 3 -3 53 27 112 66 59 39 110 68 113
66 2 -3 -5 -22 -17 -42 -36 -61 -18 -48 43 31 31 41 62 75 67 75 17 0 -12 -43
-78 -114 -70 -76 -85 -108 -24 -53 41 37 81 62 81 51 0 -11 -89 -141 -118
-172 -15 -16 -34 -31 -42 -34 -8 -3 -12 -8 -8 -12 12 -13 131 23 226 69 52 25
96 45 98 45 7 0 -35 -98 -81 -191 -26 -50 -44 -93 -42 -96 3 -2 35 45 72 104
77 122 105 161 105 144 0 -19 -90 -192 -132 -254 -22 -32 -37 -63 -35 -70 7
-18 155 137 206 216 24 37 47 67 52 67 12 0 12 -37 0 -44 -5 -3 -14 -21 -20
-38 l-10 -33 27 34 c15 19 34 44 44 55 9 12 19 18 22 15 3 -3 -23 -49 -59
-103 -63 -95 -95 -171 -95 -228 0 -40 25 -37 99 13 72 48 130 111 175 191 27
48 35 56 45 45 15 -19 -4 -66 -94 -246 -36 -72 -65 -133 -65 -136 0 -12 30 -3
55 17 29 23 105 135 169 251 20 37 41 65 46 62 10 -6 -37 -187 -80 -303 -59
-161 -24 -130 54 48 60 135 62 136 42 13 -7 -46 -9 -83 -5 -83 5 0 29 65 55
145 27 87 50 143 56 139 6 -4 8 -23 4 -48 -18 -116 -18 -116 14 -51 l30 60 -6
-65 c-5 -56 -47 -242 -69 -305 -6 -19 -6 -19 8 -2 15 18 50 137 88 302 l23
100 7 -75 c8 -92 18 -140 29 -140 12 0 18 23 26 105 7 63 8 67 16 38 6 -22 3
-56 -7 -105 -19 -88 -31 -263 -19 -271 5 -3 9 27 10 66 0 68 37 221 54 232 8
5 99 -258 101 -291 1 -11 6 19 10 66 5 47 22 128 38 180 l29 95 -4 -80 c-3
-44 -6 -97 -8 -117 -4 -33 -2 -36 11 -23 13 14 39 150 45 240 3 40 3 39 26
-31 12 -39 32 -134 43 -210 11 -76 22 -140 25 -143 6 -6 6 -5 -16 228 -11 117
-17 218 -13 224 3 5 19 -14 35 -44 30 -57 31 -55 12 43 -14 68 10 14 33 -74
37 -145 109 -346 119 -335 3 2 -9 51 -25 108 -38 130 -63 240 -58 246 3 2 19
-25 36 -61 17 -36 33 -66 35 -66 3 0 -4 30 -15 68 -11 37 -23 85 -25 107 l-5
40 19 -40 c10 -22 24 -58 31 -80 27 -89 94 -266 98 -261 7 6 -33 161 -68 263
-16 48 -29 91 -29 97 0 6 21 -25 46 -69 29 -50 75 -107 121 -152 85 -84 121
-98 74 -30 -28 41 -60 124 -75 192 -6 25 -2 22 25 -20 53 -85 141 -195 150
-189 5 3 6 11 2 17 -4 7 -35 55 -69 107 -55 86 -124 210 -124 225 0 4 47 -37
104 -89 99 -90 177 -147 239 -174 15 -6 27 -9 27 -5 0 3 -32 67 -72 142 -155
292 -157 304 -23 164 170 -179 176 -179 84 0 -43 84 -79 156 -79 160 0 4 41
-35 92 -88 105 -111 145 -142 160 -127 6 6 -7 24 -41 53 -51 42 -145 149 -138
156 7 6 81 -28 112 -52 17 -12 44 -29 61 -38 35 -18 191 -60 206 -55 5 2 -60
70 -146 151 -85 81 -153 147 -151 147 12 0 81 -49 100 -70 11 -12 29 -27 40
-32 12 -7 7 4 -15 27 l-35 38 109 -57 c60 -31 112 -54 114 -51 8 8 -36 52
-133 133 -120 99 -119 97 -50 67 169 -76 267 -116 271 -112 3 2 -45 37 -106
76 -60 39 -110 74 -110 76 0 3 11 -2 25 -11 53 -35 33 -4 -30 45 -74 59 -89
90 -17 38 52 -38 204 -127 217 -127 4 0 -28 27 -71 61 -44 33 -83 65 -88 69
-5 5 35 -6 90 -25 54 -18 117 -36 139 -39 33 -5 29 -2 -25 17 -36 13 -83 33
-105 45 -48 24 -168 113 -161 119 2 2 56 -21 120 -52 65 -32 136 -59 159 -62
l42 -4 -51 19 c-63 22 -154 76 -202 119 l-37 33 30 -11 c51 -17 216 -112 248
-142 29 -27 77 -47 77 -31 -1 14 -76 66 -163 114 -43 23 -76 44 -75 46 2 2 33
-8 68 -23 52 -21 81 -26 144 -25 110 1 115 15 11 36 -137 27 -213 55 -251 94
-19 20 -33 37 -31 39 2 1 40 -11 86 -27 100 -37 136 -39 61 -4 -66 31 -123 65
-117 71 3 2 47 -15 98 -38 106 -46 248 -93 257 -85 3 3 3 8 1 9 -77 63 -134
100 -224 143 -60 29 -102 53 -93 53 9 1 68 -14 130 -33 62 -19 114 -33 116
-32 3 4 -54 28 -142 61 l-59 22 117 7 c64 4 127 11 139 15 l22 9 -25 6 c-53
14 -236 46 -265 47 -17 1 -22 3 -13 6 14 3 16 9 8 23 -9 17 -4 18 88 19 96 1
252 18 262 28 3 3 -69 2 -159 -2 -156 -6 -164 -6 -151 11 14 16 11 17 -43 12
l-57 -5 0 34 0 33 65 0 c36 0 105 -9 153 -19 48 -10 113 -21 145 -24 l59 -6
-59 36 c-171 105 -230 132 -291 134 l-27 1 30 9 c30 10 225 5 261 -7 15 -5 16
-4 5 4 -17 12 -149 31 -241 35 l-65 2 50 12 c28 6 84 19 126 28 42 9 85 22 95
30 17 13 11 14 -61 14 -44 1 -111 -4 -149 -9 -38 -6 -71 -9 -73 -7 -2 3 63 33
143 68 153 65 179 90 49 45 -69 -24 -212 -52 -220 -44 -5 5 258 105 313 118
23 6 42 15 42 20 0 16 -172 12 -245 -5 -83 -20 -105 -15 -39 8 27 10 69 28 93
40 46 23 90 71 77 84 -4 4 -62 -6 -129 -24 -67 -17 -123 -30 -125 -28 -2 1 29
15 68 30 39 15 70 29 68 30 -2 2 -37 -5 -78 -16 -41 -10 -78 -19 -82 -19 -21
0 -2 20 55 62 62 46 107 88 93 88 -5 0 -47 -25 -94 -55 -48 -31 -73 -44 -57
-30 126 111 176 160 167 163 -5 1 -63 -26 -129 -61 -65 -35 -120 -63 -121 -61
-7 5 77 120 133 182 46 50 53 62 36 62 -11 0 -46 -22 -78 -48 -32 -26 -76 -61
-98 -77 l-40 -30 26 31 c28 34 79 80 119 107 44 30 5 18 -71 -22 -41 -21 -85
-42 -99 -46 l-25 -7 25 27 c39 42 117 82 250 128 12 5 12 6 -1 6 -9 1 -36 -6
-59 -14 -57 -20 -63 -19 -49 7 12 22 12 22 -12 5 -90 -66 -169 -109 -169 -93
0 2 24 28 53 56 43 44 46 48 17 30 -30 -20 -27 -15 19 33 30 31 52 59 49 62
-8 9 -61 -19 -136 -71 -35 -24 -65 -44 -68 -44 -3 0 8 17 24 38 16 20 42 60
57 87 16 28 38 61 49 74 l21 24 -35 -18 c-53 -27 -103 -69 -166 -140 l-56 -64
75 -100 c161 -214 262 -454 284 -679 l8 -75 65 -23 65 -23 -85 7 c-132 11
-275 7 -395 -12 -170 -27 -163 -23 -110 -58 60 -40 62 -46 19 -54 -38 -7 -86
-3 -195 16 l-67 12 4 41 c3 28 -4 13 -21 -47 l-25 -90 37 -38 c53 -54 125
-100 208 -132 92 -35 138 -56 134 -60 -6 -6 -265 51 -322 70 -26 9 -62 28 -79
42 -28 24 -30 24 -19 5 6 -12 20 -28 31 -36 10 -7 49 -56 86 -108 36 -52 99
-132 138 -179 39 -46 80 -95 90 -108 19 -24 19 -24 0 -14 -11 6 -73 57 -139
115 -108 94 -167 155 -247 254 -25 32 -49 31 -31 -1 20 -36 162 -192 217 -238
85 -72 85 -72 47 -53 -19 9 -73 28 -120 42 -108 31 -168 63 -228 122 -25 25
-41 36 -35 25 22 -41 93 -249 90 -263 -2 -9 -20 6 -46 38 -48 62 -56 55 -12
-10 l29 -44 -32 -11 -32 -11 -17 48 c-9 27 -24 88 -33 137 -9 48 -18 94 -21
104 -3 12 5 19 31 28 20 7 35 14 32 16 -4 5 -69 -16 -79 -25 -8 -8 27 -214 47
-270 8 -24 14 -45 13 -46 -2 -2 -21 -6 -44 -9 l-41 -7 -40 98 c-22 54 -48 119
-57 145 -9 25 -24 52 -33 60 -14 11 -15 11 -6 -7 6 -11 16 -51 23 -90 6 -38
21 -107 32 -153 l20 -82 -27 -123 c-15 -67 -29 -124 -31 -126 -13 -14 -14 20
-3 130 l12 124 -42 100 c-23 55 -46 109 -51 120 l-9 20 0 -20 c-1 -11 15 -65
34 -120 22 -63 35 -119 35 -152 0 -52 -13 -78 -23 -45 -2 9 -17 58 -31 107
-15 50 -35 137 -46 195 l-18 105 -1 -76 c-1 -66 -14 -170 -26 -206 -4 -13 -93
4 -163 32 -39 16 -40 18 -30 43 5 15 19 59 30 97 10 39 28 85 39 103 30 51 23
52 -13 1 -18 -25 -54 -70 -80 -101 -58 -67 -63 -87 -9 -34 l39 38 -15 -60 -15
-61 -52 26 c-62 31 -106 61 -106 73 0 5 16 14 34 21 33 12 84 65 72 76 -2 3
-19 -5 -35 -17 -17 -12 -75 -36 -128 -54 -54 -18 -123 -45 -153 -60 l-55 -27
117 113 c64 62 129 133 143 158 15 25 46 64 68 88 50 51 42 54 -20 7 -57 -43
-89 -52 -228 -60 -60 -3 -123 -8 -140 -12 l-30 -5 24 26 c14 15 26 34 27 43 4
26 89 96 179 147 48 28 72 46 59 46 -32 0 -137 -56 -187 -100 l-45 -40 -11 32
c-6 17 -9 34 -6 36 3 3 28 15 57 26 79 32 74 52 -6 22 -64 -24 -65 -25 -71 -5
-9 28 -4 31 78 46 l72 12 -81 -4 -81 -5 -11 32 c-11 30 -11 27 -7 -27 2 -33
13 -87 25 -119 21 -63 25 -90 11 -82 -11 7 -57 154 -71 227 l-11 57 -50 4
c-28 3 -65 2 -82 -2 -24 -6 -13 -8 46 -9 60 -1 77 -4 77 -15 0 -10 -19 -19
-55 -26 -30 -6 -55 -14 -55 -17 0 -3 25 -2 55 2 54 6 55 6 55 -19 0 -22 -5
-26 -27 -27 -16 0 -37 -5 -48 -10 -14 -7 -6 -8 31 -5 47 4 53 3 58 -17 10 -39
7 -43 -50 -66 -30 -13 -54 -25 -52 -26 2 -2 29 4 61 12 31 9 59 14 62 11 3 -2
8 -19 11 -36 6 -30 4 -33 -41 -52 -60 -26 -52 -38 11 -16 57 19 54 19 54 2 0
-17 -99 -106 -117 -106 -28 0 -118 253 -129 364 -4 42 -11 66 -19 66 -14 0 10
-153 40 -247 36 -118 117 -266 203 -370 40 -49 65 -59 30 -12 -68 92 -118 164
-118 170 0 8 88 43 136 53 26 6 34 3 49 -20 l17 -27 -58 -54 c-63 -58 -57 -60
17 -6 26 18 50 33 53 33 9 0 55 -53 56 -63 0 -4 -24 -33 -53 -65 -28 -31 -62
-70 -75 -86 -12 -16 -23 -27 -25 -25 -12 21 -29 46 -73 103 -115 153 -180 296
-218 485 -14 68 -27 126 -31 129 -27 27 -4 -128 41 -265 36 -112 113 -266 177
-353 65 -89 67 -130 2 -57 -118 134 -241 415 -261 596 -4 31 -11 62 -17 69
-11 13 -98 17 -112 4 -6 -5 -39 -6 -74 -3 l-65 6 126 39 125 38 7 67 c30 290
156 582 334 773 l45 49 -77 76 c-42 41 -74 78 -72 81 9 8 68 -20 129 -60 31
-22 62 -36 67 -33 6 3 47 34 93 68 45 34 109 77 143 94 92 49 261 102 381 119
59 9 109 17 110 18 1 1 24 64 51 140 l49 138 47 -146 47 -146 33 0 c56 0 225
-49 314 -90 113 -53 192 -103 284 -178 51 -41 83 -60 91 -55 28 17 237 197
233 200 -2 2 -38 -19 -80 -48 -42 -28 -79 -49 -82 -46 -3 3 11 27 30 55 20 27
36 52 36 56 0 3 -32 -28 -72 -70 -40 -42 -74 -70 -76 -64 -3 7 24 70 58 140
34 71 60 134 58 141 -2 6 -41 -37 -87 -97 -74 -97 -94 -109 -56 -34 18 36 55
158 55 183 0 17 -16 5 -78 -56 -42 -42 -81 -77 -86 -77 -4 0 -22 -10 -39 -21
-18 -12 -2 8 34 45 75 74 72 88 -5 24 -28 -23 -60 -49 -70 -57 -22 -18 14 36
83 124 47 59 57 108 31 140 -15 18 -26 12 -51 -29 l-19 -31 0 43 c0 41 -1 42
-22 31 -13 -7 -56 -44 -96 -83 l-74 -71 8 40 c4 22 15 72 24 110 10 39 15 73
13 78 -13 22 -88 -59 -146 -158 -15 -26 -30 -46 -31 -44 -2 2 2 36 10 74 16
82 18 181 4 190 -14 8 -58 -84 -96 -200 -31 -94 -33 -97 -33 -55 0 45 13 169
25 225 4 17 3 27 -1 23 -4 -4 -18 -55 -30 -113 -13 -59 -25 -108 -27 -111 -3
-2 -12 50 -22 116 -10 66 -20 120 -23 120 -3 0 -4 -35 -3 -77 4 -126 1 -190
-9 -173 -26 43 -84 234 -89 292 l-7 67 -17 -70z m306 -219 c-21 -78 -43 -133
-44 -107 0 10 12 66 27 125 20 77 29 99 31 77 2 -16 -4 -59 -14 -95z m155 28
c-16 -46 -42 -108 -57 -138 l-26 -55 -4 49 c-2 36 3 61 22 100 23 45 81 126
91 126 3 0 -9 -37 -26 -82z m-930 -74 c33 -91 39 -125 16 -84 -14 25 -55 144
-55 161 0 23 11 2 39 -77z m1092 38 c-15 -51 -110 -220 -111 -196 0 6 7 33 15
59 8 27 13 50 11 52 -1 2 -17 -15 -35 -38 -43 -53 -52 -43 -12 14 25 37 125
137 136 137 2 0 0 -12 -4 -28z m70 -29 c-10 -36 -69 -128 -77 -120 -7 7 26 92
52 130 31 46 39 43 25 -10z m-1214 -111 c14 -29 23 -55 21 -58 -8 -7 -76 98
-94 143 l-14 38 30 -35 c17 -19 42 -59 57 -88z m874 31 c-12 -20 -14 -14 -5
12 4 9 9 14 11 11 3 -2 0 -13 -6 -23z m-1034 -142 c8 -18 12 -35 10 -37 -6 -6
-51 54 -87 117 l-30 54 46 -50 c26 -27 53 -65 61 -84z m1464 32 c-36 -65 -69
-109 -77 -100 -3 3 5 25 17 49 25 49 79 121 86 114 3 -2 -9 -31 -26 -63z
m-2016 -380 c61 -40 125 -94 125 -104 0 -10 -69 23 -112 53 -30 21 -74 78 -61
78 5 0 26 -12 48 -27z m-77 -259 c51 -35 60 -44 37 -39 -16 4 -49 11 -73 15
-47 8 -66 22 -77 59 -7 22 -5 23 20 17 15 -4 57 -27 93 -52z m-163 -94 c3 -5
2 -10 -4 -10 -5 0 -13 5 -16 10 -3 6 -2 10 4 10 5 0 13 -4 16 -10z m2939 -14
c-7 -18 -44 -33 -113 -46 -102 -19 -96 -10 21 31 96 33 99 34 92 15z m-2859
-118 c57 -19 65 -23 42 -26 -30 -4 -151 30 -177 49 -23 16 52 4 135 -23z
m2843 2 c-67 -21 -168 -36 -128 -19 43 18 124 38 155 37 24 0 18 -4 -27 -18z
m50 -367 c52 -24 91 -47 89 -50 -7 -6 -225 86 -233 98 -11 18 51 -2 144 -48z
m-408 -47 c0 -103 -62 -322 -126 -446 -43 -84 -140 -221 -159 -227 -5 -1 -36
34 -68 79 -58 80 -58 81 -39 100 19 19 20 19 78 -17 57 -35 45 -16 -20 31
l-29 21 22 32 c12 17 29 31 36 31 8 0 49 -11 92 -25 42 -13 79 -23 81 -21 1 2
-28 32 -66 67 -60 55 -69 67 -61 86 l8 22 57 -25 c78 -34 90 -25 16 14 -50 27
-59 36 -55 53 6 21 5 21 78 3 11 -2 2 5 -20 17 -50 27 -47 23 -40 41 6 14 14
14 78 -3 39 -10 73 -17 75 -15 1 2 -28 15 -65 29 -74 27 -86 46 -35 59 43 11
41 21 -3 16 -32 -4 -35 -2 -36 22 0 15 -8 0 -20 -40 -39 -126 -74 -213 -88
-218 -16 -5 -17 -7 38 143 22 61 43 124 47 142 6 30 9 32 63 38 31 3 65 7 76
9 11 2 35 4 53 5 27 1 32 -2 32 -23z m107 -68 c-7 -110 -43 -250 -92 -356 -33
-70 -136 -233 -216 -339 l-32 -42 66 -78 c75 -90 109 -123 154 -149 52 -29 47
-12 -15 52 -32 33 -64 75 -71 94 -10 31 1 23 96 -70 110 -108 124 -122 119
-127 -7 -8 -142 38 -165 56 -27 22 -61 43 -177 108 l-71 40 -39 -29 c-170
-129 -341 -201 -559 -238 l-100 -16 -40 -161 c-22 -89 -42 -164 -45 -167 -3
-3 -16 43 -28 102 -13 59 -35 149 -49 200 -21 75 -30 93 -47 96 -12 2 -52 9
-90 16 -155 25 -377 115 -488 196 -74 54 -151 122 -162 142 -12 21 -5 16 106
-70 88 -68 175 -118 284 -164 103 -42 265 -84 324 -83 37 1 25 5 -65 25 -192
41 -329 99 -480 200 -106 71 -152 112 -140 123 6 5 49 24 98 42 111 41 126 34
83 -44 -31 -56 -23 -54 16 5 l24 37 30 -24 29 -23 -30 -59 c-43 -84 -42 -85
10 -15 26 34 51 62 55 62 4 0 18 -8 31 -19 l23 -18 -27 -63 c-15 -34 -26 -64
-24 -66 1 -2 18 24 36 56 33 61 57 74 80 46 10 -11 8 -29 -9 -82 -11 -37 -19
-69 -17 -71 2 -2 17 27 32 64 16 38 29 69 30 71 1 1 15 -3 32 -8 23 -8 29 -16
27 -33 -16 -118 -7 -148 14 -46 11 49 16 59 30 55 9 -3 30 -8 46 -12 l29 -7
-6 -81 c-7 -89 7 -89 19 0 8 70 15 78 57 70 36 -7 36 -8 68 -109 21 -67 34
-133 38 -192 l6 -90 13 70 c17 96 64 302 71 313 3 6 17 12 31 13 23 4 25 0 37
-70 17 -101 27 -103 20 -4 l-6 81 27 6 c15 4 35 9 45 12 14 4 24 -9 48 -60 17
-36 32 -66 34 -66 2 0 -3 21 -11 48 -24 77 -28 102 -15 102 6 0 11 -8 11 -17
1 -14 6 -12 24 11 l24 29 14 -24 c80 -133 105 -153 48 -39 -16 33 -30 62 -30
65 0 8 100 56 100 48 0 -5 16 -26 36 -48 l36 -40 -26 47 c-31 56 -32 64 -5 78
18 10 28 5 80 -45 33 -32 63 -55 66 -51 3 3 -22 37 -56 75 -65 74 -66 91 -3
70 53 -17 152 -68 152 -78 0 -13 -69 -73 -136 -118 -149 -100 -294 -159 -464
-188 -52 -9 -97 -19 -100 -22 -11 -12 144 7 222 27 198 52 465 218 526 328 9
16 41 61 70 98 111 146 189 355 217 582 l7 52 45 0 46 0 -6 -92z m-353 64 c2
-4 1 -14 -3 -20 -6 -10 -13 -10 -34 -1 -15 7 -24 16 -21 20 7 11 51 12 58 1z
m-162 -185 c58 -66 82 -107 63 -107 -17 0 -142 64 -195 100 -51 35 -61 46 -56
63 4 12 9 34 12 49 l6 28 51 -28 c30 -16 78 -58 119 -105z m142 74 c-3 -9 -9
-24 -12 -34 -4 -15 -11 -18 -41 -12 -66 12 -106 25 -129 43 -22 17 -21 18 83
18 93 1 105 -1 99 -15z m-34 -79 c0 -7 -5 -22 -11 -34 -11 -20 -11 -19 -41 8
-16 16 -34 36 -38 45 -8 13 -3 14 41 5 30 -6 49 -15 49 -24z m661 -179 c52
-25 88 -48 82 -50 -13 -5 -203 81 -203 91 0 14 35 3 121 -41z m-826 10 c76
-19 79 -21 63 -41 -11 -14 -9 -14 8 1 21 18 44 23 44 10 0 -5 -19 -30 -43 -56
l-42 -49 -64 83 c-40 50 -57 80 -45 75 10 -4 46 -14 79 -23z m-1885 -11 c0 -4
-20 -18 -45 -30 -25 -12 -45 -17 -45 -11 0 5 19 19 43 29 49 23 47 22 47 12z
m700 -7 c0 -11 -34 -61 -64 -93 -55 -59 -59 -59 -116 8 -27 34 -50 65 -50 71
0 19 24 8 52 -23 22 -26 26 -28 17 -9 -14 29 0 41 49 41 l33 0 -22 -40 c-14
-24 -28 -39 -36 -36 -10 4 -10 1 -1 -14 12 -18 16 -15 50 40 30 47 44 60 63
60 14 0 25 -2 25 -5z m-700 -49 c-23 -22 -192 -116 -209 -116 -22 0 25 47 78
78 25 14 65 32 90 38 59 16 58 16 41 0z m60 -101 c0 -2 -20 -16 -44 -30 -41
-24 -76 -55 -63 -55 4 0 29 9 57 20 59 23 60 23 60 10 0 -6 -8 -13 -17 -16
-10 -4 -49 -21 -88 -39 -38 -19 -88 -38 -110 -44 l-40 -10 46 42 c62 58 199
141 199 122z m1588 -61 c64 -57 74 -61 46 -19 l-16 24 41 -16 c22 -9 38 -19
36 -24 -11 -17 -117 -71 -124 -63 -8 9 -61 139 -61 149 0 14 23 -1 78 -51z
m-926 -49 c78 -66 262 -138 436 -171 34 -7 26 -24 -11 -24 -46 0 -190 42 -272
79 -108 49 -227 124 -212 133 19 12 27 10 59 -17z m1093 -5 c-11 -17 -153
-101 -216 -126 -79 -33 -186 -64 -217 -64 -17 0 -23 5 -20 17 2 13 17 20 52
25 111 16 244 68 345 137 41 27 70 33 56 11z m-660 -92 c7 -35 5 -38 -15 -38
-20 0 -22 4 -16 31 3 17 6 41 6 53 1 30 16 2 25 -46z m1248 -1 l32 -28 -33 18
c-19 10 -48 31 -65 46 l-32 28 33 -18 c19 -10 48 -31 65 -46z m-2253 32 c-17
-31 -140 -153 -147 -145 -4 3 5 19 19 34 14 15 37 45 51 67 35 52 102 91 77
44z m1217 -66 c-10 -9 -14 -2 -21 37 l-6 35 17 -32 c9 -18 13 -36 10 -40z
m-934 -47 c60 -48 255 -163 334 -196 90 -38 220 -75 316 -90 49 -8 81 -18 84
-27 3 -8 3 -16 1 -18 -3 -3 -54 4 -115 15 -185 33 -364 106 -520 212 l-73 49
-122 -65 c-209 -110 -208 -111 -73 29 66 69 121 125 123 125 2 0 22 -15 45
-34z m1573 -413 c19 -29 36 -53 39 -53 2 0 -19 47 -47 105 -28 58 -49 108 -45
111 7 8 180 -282 175 -296 -5 -15 -107 63 -141 108 -32 42 -71 123 -81 167 -5
23 2 15 30 -30 20 -33 52 -84 70 -112z m-1371 127 c4 -6 -26 -44 -66 -85 -40
-41 -69 -75 -65 -75 14 0 71 33 94 53 20 19 31 13 15 -9 -5 -5 5 4 20 21 l28
30 -20 -41 c-24 -49 -127 -147 -170 -162 -27 -10 -31 -9 -31 7 0 74 127 258
187 271 1 0 5 -5 8 -10z m115 -161 c-38 -90 -94 -191 -115 -209 -8 -7 -15 -10
-15 -8 0 12 153 299 157 295 2 -3 -10 -38 -27 -78z m1043 -14 c14 -44 30 -98
36 -120 l10 -40 -24 29 c-24 30 -65 160 -65 206 0 38 15 12 43 -75z"/>
<path d="M1166 3215 c10 -8 23 -15 28 -15 6 0 1 7 -10 15 -10 8 -23 15 -28 15
-6 0 -1 -7 10 -15z"/>
<path d="M3480 2530 c0 -10 21 -17 75 -24 46 -7 39 -2 -27 18 -27 8 -48 10
-48 6z"/>
<path d="M3710 2554 c0 -28 -46 -219 -66 -276 -51 -142 -159 -329 -237 -412
-20 -21 -37 -42 -37 -46 0 -17 -152 -150 -220 -192 -121 -76 -281 -131 -442
-153 -75 -10 -60 -29 16 -21 183 19 393 104 544 220 56 44 179 194 257 314 67
104 140 263 165 357 21 83 38 215 26 215 -3 0 -6 -3 -6 -6z"/>
<path d="M1512 4339 c-27 -10 -42 -46 -32 -74 8 -22 28 -27 48 -12 15 12 16
47 1 47 -6 0 -9 -7 -5 -15 6 -16 -19 -21 -29 -6 -10 17 36 41 57 30 29 -15 22
-55 -18 -99 -45 -50 -37 -64 13 -23 63 50 71 131 16 151 -16 5 -38 6 -51 1z"/>
<path d="M1911 4327 c-6 -8 -8 -17 -4 -20 7 -8 33 11 33 24 0 13 -16 11 -29
-4z"/>
<path d="M3961 4219 c135 -150 287 -342 340 -427 24 -39 50 -72 57 -72 20 0
14 14 -40 91 -104 149 -302 380 -401 468 -37 33 -24 15 44 -60z"/>
<path d="M3545 4290 c-3 -5 1 -13 10 -16 22 -9 29 1 11 15 -10 8 -16 9 -21 1z"/>
<path d="M3821 4240 c31 -27 74 -72 95 -99 42 -57 58 -61 25 -7 -25 40 -148
156 -165 156 -6 0 14 -23 45 -50z"/>
<path d="M1124 4108 c-201 -204 -261 -295 -247 -371 7 -38 50 -70 83 -62 85
21 99 122 21 154 -53 23 -75 -1 -84 -89 -3 -28 -4 -25 -5 13 -2 47 10 85 32
99 18 12 64 9 101 -6 19 -8 35 -11 35 -6 0 14 -17 21 -68 29 l-47 8 30 12 c17
7 55 15 85 18 64 7 80 16 80 50 0 25 0 25 -17 5 -15 -17 -141 -57 -151 -48 -6
6 66 36 86 36 34 0 54 29 48 66 -10 48 10 51 34 5 29 -57 25 -97 -14 -162 -19
-31 -42 -73 -52 -94 -38 -80 -124 -133 -171 -106 -25 13 -86 -20 -111 -61 -11
-18 -28 -58 -39 -88 l-18 -55 -3 48 c-2 38 3 59 29 107 17 32 40 67 50 76 18
16 20 16 37 1 26 -24 36 -21 18 5 -9 12 -16 34 -17 48 0 23 -1 24 -12 7 -7
-11 -32 -44 -57 -76 -25 -31 -56 -79 -70 -106 -14 -27 -30 -55 -36 -61 -31
-34 -155 -309 -154 -342 0 -4 13 15 28 43 23 43 39 57 112 97 77 44 130 60
130 41 0 -5 -30 -21 -65 -37 -66 -29 -145 -81 -145 -96 0 -4 30 -8 68 -9 37
-1 74 -4 84 -7 9 -2 19 0 23 6 6 10 -48 16 -107 11 -16 -1 -28 0 -28 3 0 8
123 74 153 81 15 4 30 11 33 16 3 5 -8 38 -26 73 -32 67 -31 106 5 120 26 10
93 7 100 -4 4 -6 -10 -10 -34 -10 -56 0 -71 -8 -71 -39 0 -31 16 -51 41 -51
14 0 89 98 89 116 0 3 -32 4 -70 2 -39 -2 -70 0 -70 5 0 14 82 97 96 97 20 0
17 -27 -3 -39 -15 -9 -14 -10 10 -11 19 0 27 5 27 17 0 15 2 15 19 -1 24 -22
34 -16 67 36 32 50 218 273 294 353 66 69 80 92 80 133 0 21 -9 38 -31 56 -37
31 -50 32 -74 6 -14 -15 -16 -29 -11 -67 6 -45 4 -50 -21 -65 -39 -24 -11 -22
37 2 37 19 60 14 45 -10 -8 -13 -72 -30 -113 -30 -28 0 -35 5 -48 36 -17 39
-16 40 41 104 37 41 89 110 83 110 -2 0 -67 -64 -144 -142z m214 2 c3 -7 0
-10 -7 -6 -7 5 -9 1 -5 -8 3 -9 2 -16 -4 -16 -13 0 -24 29 -16 41 8 13 27 6
32 -11z m-260 -112 c-2 -15 -11 -24 -25 -26 -27 -4 -29 5 -6 30 22 24 35 23
31 -4z m-104 -200 c29 -12 40 -38 31 -67 -8 -27 -32 -33 -60 -15 -33 22 -41
51 -19 75 20 22 17 22 48 7z m-256 -414 c10 -19 5 -24 -61 -62 -39 -22 -74
-39 -76 -36 -2 2 20 52 49 111 l53 108 11 -50 c7 -27 17 -59 24 -71z m112 61
c0 -8 -4 -15 -9 -15 -13 0 -22 16 -14 24 11 11 23 6 23 -9z"/>
<path d="M936 3771 c-8 -13 3 -38 19 -45 18 -6 39 20 31 39 -6 16 -41 21 -50
6z m44 -22 c0 -5 -7 -9 -15 -9 -15 0 -20 12 -9 23 8 8 24 -1 24 -14z"/>
<path d="M3707 4193 c-14 -13 -6 -42 18 -72 35 -41 59 -47 93 -22 15 10 43 21
62 23 l35 4 -30 13 c-24 10 -38 10 -66 1 -43 -15 -68 -11 -83 12 -14 23 0 35
24 20 22 -13 27 -3 8 16 -13 13 -50 16 -61 5z"/>
<path d="M3580 4077 c0 -2 57 -58 127 -123 69 -65 121 -109 115 -98 -20 38
-242 240 -242 221z"/>
<path d="M1623 4010 c-112 -73 -283 -235 -376 -355 -64 -83 -196 -329 -183
-342 3 -3 35 55 71 128 37 73 85 157 108 188 95 129 280 300 457 423 14 9 22
17 19 17 -3 1 -46 -26 -96 -59z"/>
<path d="M2557 4037 c-4 -10 -7 -26 -7 -35 0 -8 -9 -51 -21 -94 -19 -70 -23
-77 -40 -68 -32 18 -221 -10 -349 -52 -324 -104 -605 -402 -729 -773 -27 -82
-61 -254 -68 -342 l-6 -73 46 0 c25 0 122 -11 217 -25 95 -14 202 -24 238 -24
66 1 67 1 22 10 -120 22 -334 51 -413 56 -48 3 -84 9 -80 13 18 16 322 118
383 128 36 6 105 13 153 15 l89 5 -7 -37 c-12 -60 -7 -183 9 -231 l15 -45 -7
45 c-9 59 -9 206 0 250 l8 35 -125 -2 c-72 -2 -151 -9 -184 -18 -33 -8 -64
-15 -70 -15 -16 0 -14 26 8 113 27 102 60 177 76 171 9 -4 6 -22 -16 -72 -18
-44 -28 -83 -27 -112 0 -25 3 -35 5 -22 3 17 9 22 21 17 9 -4 35 -9 57 -11 38
-4 38 -3 -12 12 -33 10 -53 22 -53 31 0 10 6 13 18 8 9 -4 55 -9 102 -11 100
-5 73 10 -40 21 -47 5 -70 11 -67 19 32 78 41 96 48 96 13 0 218 -137 253
-169 25 -23 28 -24 24 -6 -4 27 -93 96 -237 185 -67 41 -116 76 -111 78 13 5
130 -34 208 -69 35 -16 92 -48 127 -73 l63 -44 32 45 33 45 -45 46 c-55 57
-225 278 -297 385 l-53 79 28 29 c35 37 153 119 219 152 120 60 285 105 448
121 47 5 57 3 57 -9 0 -11 -11 -15 -44 -15 -129 0 -356 -64 -480 -135 -87 -49
-207 -136 -203 -147 4 -12 437 -447 437 -438 0 15 -88 127 -155 199 -49 52
-62 71 -49 71 11 0 28 -7 38 -15 11 -8 26 -15 35 -15 11 0 9 6 -7 23 -28 30
-28 32 11 48 17 7 35 18 39 23 15 23 142 -129 184 -219 25 -54 31 -51 13 5 -6
19 -11 80 -11 135 0 86 -1 93 -8 50 -5 -27 -6 -66 -3 -85 l5 -35 -30 40 c-16
22 -33 56 -38 75 -7 31 -8 33 -13 12 l-6 -23 -29 30 -28 30 38 16 c63 26 176
55 216 55 29 0 38 4 38 16 0 14 -8 16 -57 10 -110 -13 -253 -67 -366 -138 -54
-35 -77 -29 -32 8 86 70 329 164 425 164 l37 0 41 158 c22 86 44 177 49 201 8
43 10 36 41 -125 19 -93 36 -178 39 -189 3 -11 2 -17 -1 -14 -4 4 -16 40 -26
80 l-19 74 5 -85 c3 -47 16 -146 29 -220 13 -74 27 -164 31 -200 l8 -65 8 79
c6 63 14 90 38 129 37 60 33 71 -8 21 -26 -31 -31 -34 -35 -18 -12 41 -19 114
-11 114 14 0 136 -29 172 -41 19 -6 32 -17 32 -27 0 -13 2 -14 9 -3 7 10 13
11 31 1 22 -12 22 -13 -31 -66 l-54 -55 -5 53 c-7 72 -16 41 -30 -101 -8 -87
-8 -117 1 -125 9 -8 10 -8 5 1 -4 7 0 38 8 68 10 41 27 69 58 103 24 26 53 60
64 76 l21 29 34 -20 c19 -11 33 -27 33 -37 -2 -13 1 -14 12 -5 8 6 14 8 14 5
0 -4 -52 -57 -116 -119 l-116 -112 48 -32 c52 -34 127 -104 151 -139 14 -22
14 -22 116 31 56 29 154 69 217 88 63 19 124 38 135 42 l20 7 -20 -13 c-11 -7
-96 -62 -190 -124 -93 -62 -181 -118 -195 -125 -14 -8 -20 -15 -13 -17 15 -5
109 49 183 105 30 23 57 42 60 42 11 0 41 -60 35 -70 -3 -6 -16 -10 -28 -10
-12 -1 -35 -7 -52 -15 -30 -15 -30 -15 15 -8 86 12 83 14 104 -59 11 -37 18
-69 15 -71 -2 -2 -57 2 -122 9 -66 7 -128 9 -140 5 -16 -6 -2 -10 53 -16 113
-11 264 -41 396 -80 169 -50 158 -54 151 63 -17 268 -179 592 -402 800 -166
155 -368 259 -566 292 -41 6 -92 15 -114 19 l-40 7 -17 84 c-9 47 -19 92 -20
100 -3 12 -5 11 -11 -3z m233 -234 c200 -40 370 -134 531 -293 194 -193 327
-436 374 -683 20 -108 20 -149 -2 -145 -13 2 -21 30 -39 123 -12 66 -31 145
-42 175 -36 100 -74 180 -87 180 -6 0 -38 -9 -70 -20 -85 -29 -89 -24 -12 16
37 19 67 38 67 42 0 4 -20 41 -44 82 -130 220 -364 407 -601 479 -58 18 -217
51 -246 51 -5 0 -9 5 -9 11 0 12 59 7 180 -18z m-304 -39 c-4 -9 -9 -15 -11
-12 -3 3 -3 13 1 22 4 9 9 15 11 12 3 -3 3 -13 -1 -22z m235 -41 c-12 -20 -14
-14 -5 12 4 9 9 14 11 11 3 -2 0 -13 -6 -23z m-406 -74 c15 -69 14 -93 -4 -73
-9 9 -31 102 -31 129 0 8 4 15 9 15 5 0 17 -32 26 -71z m509 -18 c-16 -59 -34
-89 -34 -57 0 21 41 128 47 123 2 -3 -3 -33 -13 -66z m254 10 c37 -22 83 -54
102 -71 50 -44 39 -38 -170 99 -54 35 -7 16 68 -28z m-870 -17 c7 -23 12 -45
11 -50 -1 -16 -37 70 -38 91 -1 29 14 6 27 -41z m-116 -69 c22 -39 -21 5 -54
54 l-30 46 36 -40 c20 -22 41 -49 48 -60z m318 62 c0 -18 -2 -19 -10 -7 -13
20 -13 43 0 35 6 -3 10 -16 10 -28z m545 -12 c-17 -57 -47 -105 -53 -86 -5 15
47 131 59 131 5 0 2 -20 -6 -45z m-937 -76 c38 -35 48 -49 39 -58 -27 -27 -46
-11 -111 99 l-21 34 21 -14 c12 -8 44 -36 72 -61z m732 11 c99 -24 250 -95
303 -143 l36 -34 83 45 82 46 -29 -36 c-17 -20 -85 -77 -152 -127 -68 -50
-123 -93 -123 -96 0 -10 123 72 172 115 52 45 66 41 18 -5 -17 -16 -62 -74
-100 -129 -39 -56 -79 -112 -89 -126 l-19 -24 -40 36 c-21 19 -48 40 -58 47
-17 10 -12 17 56 83 41 40 99 94 129 119 l55 45 -75 47 c-91 57 -186 93 -287
110 -58 10 -78 18 -80 30 -4 22 13 22 118 -3z m374 -68 c-14 -22 -28 -21 -32
3 -5 21 19 38 33 24 6 -6 6 -15 -1 -27z m-1412 -25 c-68 -90 -152 -219 -152
-232 0 -8 22 -26 49 -40 27 -13 52 -29 56 -34 8 -14 -80 13 -110 33 -22 15
-24 14 -30 -5 -4 -11 -5 -22 -3 -23 1 -2 36 -22 76 -46 75 -44 79 -49 62 -80
-10 -18 -13 -18 -52 -4 -54 19 -59 12 -8 -11 36 -16 51 -41 34 -58 -3 -3 -27
1 -52 8 -62 19 -66 10 -9 -15 46 -21 54 -33 39 -57 -6 -9 -24 -10 -72 -3 -78
11 -87 7 -23 -10 26 -7 56 -14 66 -17 13 -3 17 -12 15 -31 -3 -25 -6 -27 -48
-25 l-45 2 30 -14 c17 -8 36 -14 43 -15 6 0 12 -6 12 -14 0 -9 -33 -25 -89
-44 l-90 -30 -4 31 c-4 30 -4 30 -5 -5 -2 -28 -6 -38 -18 -38 -15 0 -16 9 -10
65 24 237 159 543 315 717 52 58 68 55 23 -5z m56 -90 c36 -33 25 -41 -13 -10
-19 15 -35 32 -35 36 0 10 18 0 48 -26z m1616 -29 c-8 -14 -30 -32 -78 -63
-46 -30 -20 2 32 40 52 38 56 40 46 23z m-1664 -38 c30 -22 50 -40 45 -40 -11
0 -115 68 -115 75 0 11 18 2 70 -35z m1552 -123 c26 -38 37 -62 30 -69 -6 -6
-18 6 -35 35 -14 24 -47 67 -72 95 -31 34 -45 58 -41 68 7 18 50 -29 118 -129z
m-1425 70 c-24 -29 -53 -67 -66 -84 -33 -48 -46 -40 -15 10 41 63 106 137 116
131 5 -3 -11 -29 -35 -57z m92 -29 c16 -24 63 -77 105 -118 42 -41 76 -79 76
-83 0 -4 -10 -21 -22 -37 l-21 -29 -40 35 c-55 50 -120 89 -171 104 -37 10
-43 15 -39 33 4 21 3 21 -10 5 -14 -17 -37 -25 -37 -12 0 16 108 144 121 144
5 0 21 -19 38 -42z m1212 25 c12 -14 12 -17 0 -21 -8 -3 -33 -23 -55 -44 -47
-45 -31 -41 31 9 23 18 44 33 47 33 3 0 20 -19 36 -42 l30 -42 -52 -45 c-49
-43 -170 -121 -188 -121 -5 0 -19 14 -31 31 l-22 31 41 41 c22 23 61 75 86
115 25 39 50 72 55 72 5 0 15 -7 22 -17z m-1461 -3 c8 -5 11 -10 5 -10 -5 0
-17 5 -25 10 -8 5 -10 10 -5 10 6 0 17 -5 25 -10z m1730 6 c0 -2 -19 -16 -42
-31 l-43 -28 29 32 c25 26 56 41 56 27z m140 -178 c35 -80 74 -220 85 -310 8
-68 13 -66 -95 -34 -52 15 -76 27 -78 39 -2 11 3 17 15 18 10 0 36 6 58 14
l40 13 -60 -2 c-54 -1 -60 1 -63 20 -3 18 5 24 55 37 l58 16 -65 -2 c-52 -2
-65 1 -68 14 -2 11 12 23 45 38 44 19 45 21 13 15 -93 -17 -106 3 -25 36 71
29 66 36 -9 11 l-57 -19 -10 26 c-5 13 -8 26 -7 27 2 1 21 9 43 19 39 16 15
17 -30 1 -13 -4 -9 2 10 17 16 13 43 35 60 50 16 15 35 28 41 28 6 0 26 -33
44 -72z m-300 38 c0 -7 -8 -16 -17 -19 -10 -2 -27 -8 -38 -12 -14 -5 -11 1 10
19 34 29 45 32 45 12z m118 -133 c44 -104 73 -223 55 -223 -7 0 -72 181 -89
248 -11 41 13 23 34 -25z"/>
<path d="M1411 2804 c0 -11 3 -14 6 -6 3 7 2 16 -1 19 -3 4 -6 -2 -5 -13z"/>
<path d="M1900 3170 c25 -22 50 -40 55 -40 6 1 -10 19 -35 40 -25 22 -49 40
-55 40 -5 -1 10 -19 35 -40z"/>
<path d="M4025 3960 c3 -5 11 -10 16 -10 6 0 7 5 4 10 -3 6 -11 10 -16 10 -6
0 -7 -4 -4 -10z"/>
<path d="M4034 3907 c34 -29 38 -37 32 -63 -7 -29 -7 -29 9 -6 21 29 13 52
-30 80 -51 32 -56 27 -11 -11z"/>
<path d="M727 3763 c-147 -233 -246 -428 -301 -587 -32 -93 -37 -124 -16 -111
4 3 23 49 40 103 39 118 115 280 200 427 105 181 113 196 107 201 -3 3 -16
-11 -30 -33z"/>
<path d="M3890 3696 c0 -5 38 -70 84 -145 46 -75 91 -149 99 -166 9 -16 16
-26 17 -21 0 15 -119 228 -160 286 -22 30 -40 51 -40 46z"/>
<path d="M968 3548 c-79 -113 -121 -179 -116 -184 3 -2 46 58 96 133 51 74 91
137 89 139 -2 2 -33 -38 -69 -88z"/>
<path d="M4440 3628 c0 -2 33 -68 73 -148 40 -80 93 -199 116 -265 24 -66 46
-127 49 -135 4 -11 6 -10 9 6 12 68 -196 544 -237 544 -6 0 -10 -1 -10 -2z"/>
<path d="M4070 3616 c0 -5 26 -43 58 -85 74 -96 133 -184 161 -239 21 -41 100
-407 116 -533 7 -54 9 -57 62 -92 54 -36 93 -47 93 -27 0 6 -10 10 -22 10 -33
0 -118 57 -118 78 0 10 27 44 61 77 56 56 96 111 86 121 -2 2 -18 -1 -35 -7
-18 -6 -52 -9 -76 -7 l-44 3 3 -50 4 -50 -10 55 c-18 98 -79 359 -94 399 -7
22 -21 52 -30 68 -17 27 -16 27 11 -4 16 -17 43 -51 61 -76 31 -43 34 -45 95
-49 35 -3 65 -4 67 -2 9 8 -33 96 -52 109 -20 12 -90 34 -172 54 -23 5 -43 25
-82 83 -55 79 -142 179 -143 164z m385 -322 c19 -7 49 -63 40 -72 -4 -4 -13 2
-20 13 -27 38 -36 45 -61 45 -14 0 -22 4 -19 10 7 11 35 13 60 4z"/>
<path d="M4160 3582 c0 -10 202 -83 225 -82 10 1 -157 70 -202 84 -13 4 -23 3
-23 -2z"/>
<path d="M2541 3544 c-26 -97 -41 -190 -40 -247 l2 -62 9 60 c5 33 18 109 29
169 19 110 19 151 0 80z"/>
<path d="M4172 3292 c156 -313 190 -450 190 -772 0 -168 -15 -291 -41 -324 -4
-6 -27 -69 -51 -141 -23 -71 -55 -163 -71 -202 -162 -411 -454 -726 -865 -934
-275 -139 -508 -189 -824 -176 -242 11 -415 58 -667 182 -467 231 -799 585
-973 1036 -45 116 -44 83 1 -56 178 -536 700 -995 1307 -1146 197 -49 357 -57
647 -34 59 5 59 4 -24 -14 -81 -18 -85 -21 -138 -77 -50 -55 -54 -57 -48 -29
15 74 21 69 -95 76 -58 3 -106 5 -107 4 -1 -1 14 -23 34 -51 19 -27 51 -82 70
-121 33 -71 53 -92 53 -55 0 26 49 103 105 165 49 54 54 57 138 76 48 12 95
25 104 30 10 6 67 24 128 41 60 17 148 47 195 66 330 136 661 418 854 727 82
131 216 477 247 637 7 36 18 71 25 77 19 20 27 132 21 307 -9 244 -47 431
-123 594 -38 83 -167 304 -187 320 -7 6 36 -87 95 -206z m-1630 -2689 c2 -18
10 -29 23 -32 17 -3 18 -1 6 13 -17 20 1 48 19 30 12 -12 -1 -57 -19 -68 -16
-10 -51 31 -51 59 0 34 18 32 22 -2z"/>
<path d="M4272 3490 c-35 -15 -27 -70 12 -89 25 -12 31 -11 57 8 l29 22 0 -26
c0 -14 3 -25 8 -25 14 0 0 78 -16 94 -23 20 -62 27 -90 16z m63 -40 c3 -5 3
-15 -1 -21 -6 -11 -23 6 -24 24 0 10 18 9 25 -3z"/>
<path d="M4463 3410 c25 -47 64 -136 88 -197 23 -62 44 -111 47 -109 2 2 -11
46 -28 97 -36 109 -105 251 -133 276 -12 11 -3 -14 26 -67z"/>
<path d="M2396 3423 c19 -80 16 -86 -13 -28 -27 56 -26 38 5 -75 12 -41 25
-88 29 -105 6 -21 9 -1 11 70 2 85 -1 109 -18 148 -12 26 -23 47 -25 47 -2 0
3 -26 11 -57z"/>
<path d="M2431 3424 c0 -11 3 -14 6 -6 3 7 2 16 -1 19 -3 4 -6 -2 -5 -13z"/>
<path d="M870 3349 c0 -5 5 -7 10 -4 6 3 10 8 10 11 0 2 -4 4 -10 4 -5 0 -10
-5 -10 -11z"/>
<path d="M804 3259 c-20 -41 -56 -132 -79 -204 -40 -123 -44 -130 -74 -139
-23 -7 -42 -5 -73 7 -23 9 -44 15 -46 12 -11 -11 27 -74 75 -127 29 -32 53
-63 53 -69 0 -6 -14 -23 -32 -37 -74 -63 -128 -116 -128 -126 0 -6 5 -3 10 6
6 9 46 42 90 72 l80 56 0 53 c1 105 56 304 132 470 22 49 38 91 35 94 -3 3
-22 -28 -43 -68z"/>
<path d="M738 3265 c-43 -23 -69 -45 -52 -45 18 0 93 42 98 55 3 8 4 15 3 15
-1 -1 -23 -12 -49 -25z"/>
<path d="M4424 3182 c-12 -2 -30 -13 -40 -24 -19 -21 -19 -21 3 -9 12 6 39 15
60 19 28 6 33 9 18 13 -11 2 -30 3 -41 1z"/>
<path d="M604 3161 c-51 -31 -83 -111 -110 -274 -45 -268 -49 -476 -10 -611 8
-28 31 -112 50 -186 50 -193 121 -389 145 -404 5 -3 15 1 22 10 35 42 129 41
171 -1 36 -36 52 -97 37 -143 -27 -87 -105 -121 -148 -66 -48 61 -46 157 4
170 49 12 81 -28 73 -92 -4 -35 -31 -43 -59 -18 -18 16 -19 16 -19 -3 0 -28
23 -45 57 -41 21 2 33 12 45 38 33 68 -15 150 -88 150 -49 0 -74 -32 -74 -92
0 -117 101 -208 238 -214 35 -2 73 -6 85 -10 l22 -6 -22 24 c-13 13 -23 30
-23 36 0 16 -11 15 -34 -3 -24 -18 -71 -19 -111 0 -16 7 -24 14 -17 14 29 2
72 43 83 81 l12 39 37 -57 c20 -31 65 -90 99 -131 62 -74 62 -74 41 -93 -27
-26 -25 -40 10 -60 17 -9 30 -21 30 -25 0 -4 -20 -21 -45 -37 -50 -31 -54 -43
-9 -26 33 13 84 58 84 75 0 23 -38 47 -60 40 -16 -5 -21 -3 -18 6 3 8 15 15
29 16 18 2 46 -18 117 -86 107 -104 109 -113 57 -202 -19 -33 -35 -62 -35 -64
0 -12 210 -154 299 -202 102 -55 249 -122 301 -138 l25 -7 -22 21 c-13 12 -23
32 -23 44 0 46 -65 126 -103 127 -23 0 -33 -26 -17 -45 18 -22 32 -18 25 6 -6
18 -4 19 12 11 29 -16 53 -47 63 -82 5 -19 8 -36 5 -38 -16 -16 -425 204 -514
277 l-34 28 28 47 28 48 33 -62 c48 -89 82 -109 132 -74 28 19 28 45 2 62 -24
15 -44 7 -36 -15 9 -22 -3 -36 -20 -22 -15 12 -18 61 -6 92 6 15 17 10 77 -34
69 -50 442 -239 473 -239 35 -1 55 -27 49 -65 -4 -26 -2 -35 8 -35 16 0 29 35
20 50 -7 11 15 13 39 4 24 -9 19 -30 -10 -53 -34 -26 -56 -27 -80 0 -15 16
-16 24 -6 39 16 27 15 30 -8 30 -27 0 -27 -48 1 -84 39 -49 113 -28 139 40 16
40 13 94 -5 94 -8 0 -15 -9 -15 -19 0 -18 -3 -19 -32 -9 -176 56 -367 144
-504 229 -200 124 -430 332 -554 499 -122 164 -236 439 -327 788 -30 119 -36
157 -40 288 l-6 152 -42 -32 c-23 -17 -41 -34 -39 -38 2 -3 -9 -35 -26 -70
-16 -34 -30 -68 -30 -74 0 -7 15 -15 33 -18 47 -9 95 -62 111 -124 15 -57 14
-61 -23 -63 -22 -1 -20 -3 8 -8 34 -6 34 -6 66 -121 36 -132 90 -295 116 -358
l18 -42 -31 16 c-38 20 -92 13 -122 -15 l-22 -21 -16 28 c-24 39 -107 294
-115 347 l-6 45 45 0 c80 0 104 -64 74 -193 -21 -88 -20 -110 4 -156 l19 -39
51 26 c27 15 50 32 50 39 0 6 -12 19 -27 28 -26 15 -28 21 -28 83 -1 68 -26
195 -48 240 -21 43 -60 65 -113 64 -43 -1 -63 8 -64 29 0 4 21 5 48 3 26 -2
38 -1 27 2 -78 21 -84 25 -97 67 -7 24 -12 108 -12 197 -1 257 45 523 102 591
27 33 44 35 86 14 15 -8 32 -15 36 -15 12 0 33 57 25 69 -10 18 -88 12 -121
-8z m121 -1376 c-41 -13 -60 -11 -50 6 4 5 25 9 48 8 l42 -1 -40 -13z"/>
<path d="M832 3143 c-65 -129 -102 -325 -102 -538 0 -128 22 -340 36 -354 3
-3 2 41 -3 99 -12 152 -9 413 6 500 11 59 60 242 86 318 9 26 -5 10 -23 -25z"/>
<path d="M4448 3145 c-51 -28 -57 -122 -12 -192 18 -29 67 -30 111 -3 l33 20
0 -23 c0 -12 9 -74 20 -137 11 -63 23 -180 27 -260 5 -107 9 -137 15 -115 13
45 -1 231 -29 395 -14 80 -29 169 -34 199 -12 65 -34 105 -66 120 -30 14 -32
13 -65 -4z m68 -33 c20 -13 44 -70 44 -105 0 -27 -5 -36 -25 -45 -34 -16 -50
-15 -64 2 -9 10 -7 17 5 27 10 8 20 13 23 11 3 -2 7 1 9 7 5 14 -35 14 -43 1
-14 -23 -25 -7 -25 34 0 61 37 94 76 68z"/>
<path d="M2455 3130 c-16 -4 -41 -13 -55 -19 -24 -11 -24 -11 5 -6 17 3 64 9
106 12 170 12 337 -83 410 -234 26 -54 36 -147 21 -208 l-10 -40 -1 35 c-1 49
-27 142 -52 192 -12 23 -44 66 -72 95 -104 110 -255 148 -419 105 -98 -26
-130 -43 -195 -105 -195 -185 -200 -463 -12 -647 130 -126 298 -175 467 -135
86 21 150 55 219 119 139 130 195 320 143 487 -37 121 -137 242 -250 303 -89
48 -220 68 -305 46z m-150 -112 c-53 -38 -123 -116 -150 -165 -14 -26 -23 -37
-19 -23 16 65 70 132 148 184 47 31 64 34 21 4z m336 -162 c119 -79 111 -253
-14 -318 -128 -66 -277 22 -277 163 0 74 62 155 137 179 43 14 113 3 154 -24z
m-394 -399 c26 -27 77 -62 113 -80 60 -30 72 -32 165 -32 113 0 157 17 229 84
l39 36 -27 -37 c-157 -212 -564 -117 -609 142 -6 32 -5 31 18 -15 14 -28 46
-72 72 -98z"/>
<path d="M644 3063 c1 -33 -2 -38 -21 -37 -24 1 -30 -10 -13 -21 15 -9 12 -32
-5 -39 -8 -3 -26 -1 -40 4 -33 12 -32 -3 0 -18 54 -25 95 -9 116 45 14 37 11
68 -9 86 -26 24 -29 22 -28 -20z"/>
<path d="M4644 2993 c16 -54 48 -267 58 -390 11 -137 6 -268 -19 -478 -4 -38
-3 -47 6 -39 25 23 45 195 45 389 1 167 -3 210 -28 350 -16 88 -33 166 -39
173 -14 18 -29 15 -23 -5z"/>
<path d="M425 2900 c-3 -5 -1 -10 4 -10 6 0 11 5 11 10 0 6 -2 10 -4 10 -3 0
-8 -4 -11 -10z"/>
<path d="M401 2817 c-20 -52 -32 -277 -21 -403 11 -135 15 -154 37 -154 12 0
14 7 9 28 -14 58 -18 358 -7 446 8 60 9 92 2 99 -7 7 -14 2 -20 -16z"/>
<path d="M3061 2820 c1 -22 27 -88 28 -69 1 9 -6 32 -14 50 -8 19 -14 27 -14
19z"/>
<path d="M3205 2790 c-13 -6 10 -7 60 -3 44 3 82 7 84 9 9 8 -125 2 -144 -6z"/>
<path d="M536 2751 c-9 -27 5 -47 29 -38 21 9 30 36 16 50 -8 8 -11 5 -11 -11
0 -29 -18 -28 -22 1 l-4 22 -8 -24z"/>
<path d="M4480 2746 c0 -18 36 -40 50 -31 12 7 14 26 3 23 -5 -1 -18 3 -30 10
-19 11 -23 10 -23 -2z"/>
<path d="M1080 2696 c-79 -30 -207 -102 -197 -112 2 -2 51 20 108 48 89 45
112 53 162 53 34 0 56 4 54 10 -5 15 -87 16 -127 1z"/>
<path d="M1774 2688 c-39 -4 -91 -15 -115 -23 -24 -8 -33 -13 -19 -10 14 2 78
10 143 17 64 7 117 16 117 20 0 9 -30 9 -126 -4z"/>
<path d="M501 2664 c0 -11 3 -14 6 -6 3 7 2 16 -1 19 -3 4 -6 -2 -5 -13z"/>
<path d="M4438 2458 c-4 -167 -8 -200 -27 -248 -12 -30 -41 -123 -66 -206 -24
-84 -64 -197 -89 -252 l-44 -100 64 -12 c78 -15 95 -7 25 11 -28 7 -51 18 -51
24 0 6 18 51 39 99 22 50 56 157 77 244 36 148 41 161 96 244 33 48 68 94 79
102 20 13 20 15 4 40 -9 14 -23 45 -30 70 l-14 44 35 -20 c22 -13 33 -26 30
-34 -3 -8 -9 -21 -12 -29 -9 -21 10 -19 30 4 20 23 10 53 -25 72 -12 6 -30 31
-41 57 -18 41 -52 81 -69 82 -4 0 -9 -87 -11 -192z"/>
<path d="M3113 2623 c-18 -2 -33 -7 -33 -11 0 -7 208 3 240 12 20 5 -165 4
-207 -1z"/>
<path d="M4556 2591 c-17 -19 -17 -21 -1 -43 l16 -23 -7 28 c-5 21 -2 32 12
42 11 8 14 15 8 15 -6 0 -19 -9 -28 -19z"/>
<path d="M1698 2513 c6 -2 18 -2 25 0 6 3 1 5 -13 5 -14 0 -19 -2 -12 -5z"/>
<path d="M522 2398 c-7 -7 -11 -35 -11 -62 1 -28 4 -40 6 -26 6 29 19 40 48
39 19 0 19 -1 -2 -16 -28 -19 -29 -35 -5 -56 24 -22 55 -21 76 2 23 26 12 64
-30 101 -37 32 -62 38 -82 18z"/>
<path d="M2047 2364 c-3 -4 -45 -19 -93 -36 -87 -29 -229 -97 -220 -105 2 -3
14 1 27 7 12 7 76 32 141 56 138 51 175 69 161 77 -6 4 -13 4 -16 1z"/>
<path d="M4527 2298 c-76 -82 -114 -140 -122 -189 -6 -33 -3 -43 11 -54 31
-22 91 -36 121 -28 26 6 24 8 -21 14 -45 7 -96 40 -96 62 0 5 29 39 64 75 60
63 84 98 106 157 15 39 0 30 -63 -37z"/>
<path d="M4636 2328 c-50 -309 -67 -376 -143 -568 -58 -148 -60 -157 -24 -88
75 140 153 425 175 636 6 57 0 71 -8 20z"/>
<path d="M2174 2242 c16 -18 28 -33 25 -36 -57 -50 -185 -141 -244 -174 -42
-24 -74 -46 -71 -50 15 -14 198 92 265 155 l70 64 63 -34 c35 -18 74 -36 86
-39 l24 -7 -26 -43 c-25 -43 -47 -115 -61 -198 -11 -69 2 -44 35 70 17 57 39
119 49 138 l18 36 -74 32 c-41 18 -100 51 -131 75 -49 36 -53 38 -28 11z"/>
<path d="M4550 2212 c0 -6 5 -14 10 -17 6 -3 10 -22 10 -41 0 -35 -28 -74 -53
-74 -19 0 -37 21 -37 43 0 10 -5 17 -12 15 -23 -8 -15 -51 13 -67 70 -39 149
80 89 134 -11 10 -20 13 -20 7z"/>
<path d="M4507 2158 c-21 -11 -22 -32 -2 -48 12 -10 18 -10 30 0 33 27 8 69
-28 48z"/>
<path d="M440 2138 c0 -27 61 -250 92 -338 34 -94 42 -106 66 -92 10 7 7 20
-12 63 -34 77 -83 234 -97 312 -10 54 -16 67 -31 67 -10 0 -18 -6 -18 -12z"/>
<path d="M600 2085 c0 -12 35 -75 42 -75 13 0 9 34 -8 58 -13 19 -34 30 -34
17z"/>
<path d="M4370 1951 c-12 -47 -33 -115 -46 -150 -13 -35 -24 -65 -24 -67 0 -2
19 -9 43 -16 l42 -12 -35 -4 c-56 -6 -56 -19 0 -47 41 -21 55 -24 66 -14 20
16 18 59 -6 119 -27 68 -26 139 1 174 18 23 27 26 75 24 31 -1 59 3 66 10 13
13 19 10 -88 46 l-72 24 -22 -87z"/>
<path d="M4440 1922 c-16 -13 -23 -31 -26 -67 l-3 -50 10 42 c6 24 21 51 35
62 13 10 24 22 24 25 0 11 -18 6 -40 -12z"/>
<path d="M4445 1860 c3 -5 8 -10 11 -10 2 0 4 5 4 10 0 6 -5 10 -11 10 -5 0
-7 -4 -4 -10z"/>
<path d="M4601 1813 c-7 -21 -29 -71 -47 -112 -22 -47 -31 -78 -25 -84 10 -10
25 20 68 140 14 39 23 77 21 83 -2 6 -10 -6 -17 -27z"/>
<path d="M4205 1600 c4 -6 53 -10 116 -10 66 0 109 4 109 10 0 6 -45 10 -116
10 -74 0 -113 -4 -109 -10z"/>
<path d="M786 1581 c-4 -7 -5 -15 -2 -18 9 -9 19 4 14 18 -4 11 -6 11 -12 0z"/>
<path d="M4174 1558 c-3 -4 5 -26 16 -48 33 -64 36 -124 11 -199 -12 -35 -20
-66 -16 -69 14 -14 94 84 175 213 24 39 49 79 57 91 13 21 13 21 -113 20 -69
-1 -128 -4 -130 -8z m149 -36 c47 -7 47 -7 32 -29 l-16 -23 -49 28 c-26 15
-51 24 -55 20 -3 -3 3 -24 14 -46 22 -43 17 -88 -14 -127 -14 -19 -14 -18 -5
8 14 40 12 108 -5 137 -8 14 -14 28 -15 33 0 8 46 8 113 -1z"/>
<path d="M905 1460 c-23 -26 -4 -26 26 0 18 15 20 19 8 20 -9 0 -24 -9 -34
-20z"/>
<path d="M4384 1393 c-31 -48 -78 -116 -105 -150 -50 -64 -62 -86 -33 -62 46
38 213 284 201 296 -3 3 -31 -35 -63 -84z"/>
<path d="M4055 1397 c-110 -158 -328 -353 -535 -477 -200 -120 -375 -188 -634
-246 -121 -27 -180 -55 -219 -107 -29 -39 -73 -125 -66 -130 6 -6 303 28 374
43 185 38 419 130 619 244 98 56 220 138 231 156 9 15 -75 70 -107 70 -15 0
-37 -9 -49 -21 -18 -18 -20 -28 -14 -76 8 -64 1 -74 -67 -109 -54 -27 -85 -30
-112 -9 -11 8 -26 15 -33 15 -20 0 -53 -38 -53 -60 0 -17 3 -19 19 -10 28 15
35 -5 8 -22 -32 -20 -79 -39 -84 -35 -2 3 13 39 32 81 40 82 75 112 123 103
32 -6 52 1 52 18 0 24 -19 27 -68 11 -62 -21 -101 -64 -136 -149 -37 -88 -75
-121 -131 -115 -56 7 -108 33 -134 68 l-22 30 35 0 c19 0 41 3 49 6 11 4 14 0
11 -13 -8 -29 30 -56 77 -57 51 -1 68 19 107 124 l28 75 79 43 c190 104 363
232 489 361 l59 60 28 -30 c31 -33 80 -39 116 -14 35 24 57 94 44 141 -12 43
-46 104 -58 104 -5 0 -30 -33 -58 -73z m65 -7 c0 -5 -7 -10 -16 -10 -8 0 -12
5 -9 10 3 6 10 10 16 10 5 0 9 -4 9 -10z m16 -55 c14 -21 14 -30 4 -55 -23
-55 -87 -69 -116 -25 -19 29 -12 57 23 85 35 27 69 26 89 -5z m-354 -431 l31
-16 -24 -19 c-42 -32 -77 -43 -94 -29 -18 15 -19 34 -5 61 13 23 50 25 92 3z
m-454 -121 c-9 -10 -23 -43 -33 -73 -9 -30 -24 -61 -33 -67 -21 -17 -54 -16
-77 1 -16 11 -17 17 -7 29 10 12 10 16 0 20 -17 6 -9 14 24 22 27 7 28 6 22
-24 -4 -20 -2 -31 4 -31 14 0 37 44 47 87 6 33 27 52 54 53 12 0 11 -3 -1 -17z
m-308 -166 c14 -25 13 -28 -15 -57 -34 -35 -26 -38 22 -9 36 22 61 15 50 -14
-10 -27 -272 -78 -387 -76 l-35 0 40 13 c22 7 54 27 72 44 17 18 37 32 43 32
7 0 25 -14 42 -32 24 -25 33 -30 46 -21 28 17 26 49 -4 72 -32 25 -101 28
-143 6 -33 -17 -101 -92 -101 -112 0 -7 -7 -13 -15 -13 -12 0 -9 10 14 43 62
89 117 121 230 133 53 6 55 6 36 -11 -11 -9 0 -5 25 9 52 30 60 29 80 -7z
m147 -60 c2 -3 -5 -8 -16 -11 -12 -3 -30 -9 -41 -12 -16 -4 -20 -1 -20 19 0
23 2 24 36 17 19 -5 38 -10 41 -13z"/>
<path d="M4067 1312 c-24 -26 -12 -54 22 -50 22 2 26 8 26 33 0 36 -24 44 -48
17z"/>
<path d="M2967 602 c-21 -23 -22 -42 -2 -42 8 0 15 7 15 16 0 8 5 12 10 9 6
-3 10 3 10 14 0 26 -12 27 -33 3z"/>
<path d="M2787 524 c-4 -4 -7 -11 -7 -16 0 -13 50 -6 53 7 2 12 -36 19 -46 9z"/>
<path d="M750 1420 c0 -31 349 -397 437 -458 l31 -22 11 32 c16 44 14 62 -9
83 -16 14 -30 16 -67 12 l-48 -7 24 20 c29 25 112 28 131 5 14 -17 7 -86 -14
-126 -11 -21 -11 -29 0 -44 8 -11 14 -14 14 -6 0 7 14 44 30 82 28 62 30 72
18 97 -7 15 -26 33 -41 40 -25 12 -37 11 -99 -8 -39 -12 -81 -19 -94 -16 -26
7 -96 93 -114 140 -14 37 9 74 51 83 48 9 20 23 -67 32 -86 9 -121 20 -165 52
-17 12 -29 16 -29 9z m200 -95 c-56 -18 -84 -19 -98 -2 -8 9 6 12 66 14 l77 2
-45 -14z"/>
<path d="M770 1310 c12 -16 24 -30 26 -30 3 0 -4 14 -16 30 -12 17 -24 30 -26
30 -3 0 4 -13 16 -30z"/>
<path d="M985 1286 c-26 -39 7 -96 56 -96 29 0 46 14 29 25 -5 3 -10 21 -10
39 0 56 -46 77 -75 32z m45 -26 c0 -5 -4 -10 -10 -10 -5 0 -10 5 -10 10 0 6 5
10 10 10 6 0 10 -4 10 -10z"/>
<path d="M846 1211 c64 -85 209 -230 309 -310 102 -82 105 -84 105 -79 0 3
-46 44 -102 90 -99 83 -195 177 -307 303 l-53 60 48 -64z"/>
<path d="M4158 1205 c-14 -8 -59 -18 -100 -21 -115 -11 -125 -23 -18 -23 95 0
109 4 139 42 16 20 14 21 -21 2z"/>
<path d="M3875 1121 c-11 -5 -35 -22 -54 -38 -41 -35 -38 -50 20 -124 39 -49
41 -50 60 -33 25 23 24 30 -16 93 -34 53 -41 88 -8 41 l16 -23 8 21 c7 19 16
22 60 22 42 0 50 3 45 15 -4 13 -2 13 14 5 50 -27 20 -51 -52 -43 -60 7 -70
-11 -35 -62 l24 -35 74 66 c41 36 75 70 77 74 3 7 -57 17 -113 19 -11 1 -38 3
-60 6 -22 2 -49 1 -60 -4z"/>
<path d="M4061 970 c-41 -39 -70 -70 -65 -70 12 0 162 139 149 139 -5 0 -43
-31 -84 -69z"/>
<path d="M3750 1012 c0 -5 7 -13 16 -16 10 -4 14 -1 12 6 -5 15 -28 23 -28 10z"/>
<path d="M3600 899 c0 -24 23 -21 28 4 2 10 -3 17 -12 17 -10 0 -16 -9 -16
-21z"/>
<path d="M3550 871 c0 -6 5 -13 10 -16 14 -9 13 -48 -2 -63 -7 -7 -27 -12 -46
-12 -19 0 -31 -4 -27 -10 11 -18 61 -11 83 13 24 26 29 66 10 85 -14 14 -28
16 -28 3z"/>
<path d="M1533 844 c-15 -23 -15 -29 -2 -52 9 -17 27 -29 47 -33 28 -6 36 -3
49 17 21 33 74 32 143 -3 66 -34 107 -91 140 -192 13 -41 28 -70 34 -68 17 6
9 69 -17 129 -45 102 -101 147 -254 204 -84 32 -118 31 -140 -2z m78 -21 c14
-38 -9 -61 -46 -45 -27 12 -33 40 -13 60 20 20 48 14 59 -15z"/>
<path d="M1560 820 c0 -5 7 -10 15 -10 8 0 15 5 15 10 0 6 -7 10 -15 10 -8 0
-15 -4 -15 -10z"/>
<path d="M3740 758 c-121 -80 -364 -202 -495 -248 -49 -17 -134 -42 -189 -55
-54 -14 -101 -27 -104 -30 -16 -16 16 -14 99 6 233 54 498 169 693 301 97 65
136 100 109 97 -4 0 -55 -32 -113 -71z"/>
<path d="M1365 770 c12 -20 177 -122 281 -175 168 -84 390 -154 599 -188 125
-21 235 -29 235 -18 0 5 -30 12 -67 16 -356 32 -709 152 -984 335 -62 41 -75
47 -64 30z"/>
<path d="M1890 741 c0 -5 5 -13 11 -16 6 -4 27 -41 46 -82 54 -111 115 -132
208 -71 71 47 143 50 207 9 44 -28 118 -123 118 -151 0 -5 5 -10 11 -10 12 0
5 27 -23 90 -32 70 -65 108 -116 135 -26 13 -39 24 -30 25 9 0 19 4 22 9 8 12
-99 -16 -139 -36 -16 -9 -47 -31 -68 -49 -28 -26 -46 -34 -75 -34 -20 0 -44 5
-52 10 -8 5 -33 46 -55 92 -35 73 -65 109 -65 79z"/>
<path d="M2260 540 c0 -33 22 -50 67 -50 16 0 37 -6 48 -13 15 -12 8 -12 -50
-4 -50 7 -74 16 -89 32 -12 13 -34 26 -50 30 l-29 6 26 -28 c15 -15 33 -37 42
-48 13 -17 14 -17 9 -2 -5 15 -2 17 17 12 58 -13 194 -34 198 -29 8 8 -34 58
-78 92 -29 22 -54 32 -77 32 -31 0 -34 -3 -34 -30z"/>
<path d="M2790 410 c-30 -5 -85 -8 -122 -9 -39 -1 -70 -6 -74 -13 -5 -8 20
-10 102 -5 129 8 184 16 184 28 0 10 -9 10 -90 -1z"/>
</g>
</svg>